<?xml version="1.0" encoding="utf-8"?>
<!-- Generator: Adobe Illustrator 16.0.3, SVG Export Plug-In . SVG Version: 6.00 Build 0)  -->
<!DOCTYPE svg PUBLIC "-//W3C//DTD SVG 1.1//EN" "http://www.w3.org/Graphics/SVG/1.1/DTD/svg11.dtd">
<svg version="1.1" id="features_layouts" xmlns="http://www.w3.org/2000/svg" xmlns:xlink="http://www.w3.org/1999/xlink" x="0px"
	 y="0px" width="560px" height="463px" viewBox="0 0 560 463" enable-background="new 0 0 560 463" xml:space="preserve">
<rect id="toolbar-l" x="0" y="13" opacity="0.05" enable-background="new    " width="133" height="17"/>
<rect id="toolbar-r" x="137" y="13" opacity="0.05" enable-background="new    " width="122" height="17"/>
<rect id="logo" x="0" y="35" opacity="0.05" enable-background="new    " width="54" height="17"/>
<rect id="headerbar" x="59" y="35" opacity="0.05" enable-background="new    " width="142" height="17"/>
<rect id="menu" x="0" y="57" opacity="0.05" enable-background="new    " width="259" height="17"/>
<rect id="search" x="206" y="35.288" opacity="0.05" enable-background="new    " width="54" height="17"/>
<g id="top-a" opacity="0.1">
	<rect x="0" y="106" fill="#777777" width="260" height="22"/>
</g>
<g id="top-b" opacity="0.1">
	<rect x="0" y="133" fill="#777777" width="260" height="22"/>
</g>
<rect id="sidebar-a__x28_left_x29_" x="0" y="187" opacity="0.2" fill="#444444" enable-background="new    " width="26" height="92"/>
<rect id="sidebar-b__x28_left_x29_" x="31" y="187" opacity="0.2" fill="#444444" enable-background="new    " width="26" height="92"/>
<rect id="sidebar-a__x28_right_x29_" x="234" y="187" opacity="0.2" fill="#444444" enable-background="new    " width="26" height="92"/>
<rect id="sidebar-b__x28_right_x29_" x="203" y="187" opacity="0.2" fill="#444444" enable-background="new    " width="26" height="92"/>
<g id="inner_top" opacity="0.1">
	<rect x="62" y="187" fill="#777777" width="136" height="20"/>
</g>
<rect id="content" x="62" y="212" opacity="0.05" enable-background="new    " width="136" height="42"/>
<g id="inner_bottom" opacity="0.1">
	<rect x="62" y="259" fill="#777777" width="136" height="20"/>
</g>
<g id="bottom-a" opacity="0.1">
	<rect x="0" y="284" fill="#777777" width="260" height="22"/>
</g>
<g id="bottom-b" opacity="0.1">
	<rect x="0" y="311" fill="#777777" width="260" height="22"/>
</g>
<rect id="footer" x="0" y="392" opacity="0.05" enable-background="new    " width="260" height="17"/>
<g id="top-a_1_" opacity="0.1">
	<rect x="0" y="79" fill="#777777" width="260" height="22"/>
</g>
<g id="top-b_1_" opacity="0.1">
	<rect x="0" y="160" fill="#777777" width="260" height="22"/>
</g>
<g id="bottom-b_1_" opacity="0.1">
	<rect x="0" y="338" fill="#777777" width="260" height="22"/>
</g>
<g id="bottom-b_2_" opacity="0.1">
	<rect x="0" y="365" fill="#777777" width="260" height="22"/>
</g>
<g id="equal_bg" opacity="0.1">
	<rect x="290" y="257.303" fill="#777777" width="260" height="35.841"/>
</g>
<g id="widget_2_" opacity="0.15">
	<rect x="353.653" y="263.939" width="60.927" height="22.566"/>
</g>
<g id="widget_1_" opacity="0.15">
	<rect x="419.34" y="263.939" width="59.974" height="22.566"/>
</g>
<g id="widget" opacity="0.15">
	<rect x="484.073" y="263.939" width="60.927" height="22.566"/>
</g>
<g id="double_bg" opacity="0.1">
	<rect x="290" y="371.462" fill="#777777" width="260" height="35.841"/>
</g>
<g id="widget_4_" opacity="0.15">
	<rect x="353.653" y="378.1" width="125.66" height="22.566"/>
</g>
<g id="widget_3_" opacity="0.15">
	<rect x="484.073" y="378.1" width="60.927" height="22.566"/>
</g>
<g id="stack_bg" opacity="0.1">
	<rect x="290" y="299.78" fill="#777777" width="260" height="65.044"/>
</g>
<g id="widget_5_" opacity="0.15">
	<rect x="353.653" y="306.418" width="191.347" height="22.566"/>
</g>
<g id="widget_6_" opacity="0.15">
	<rect x="353.653" y="335.621" width="191.347" height="22.566"/>
</g>
<rect id="sidebar-a_10_" x="290" y="34" opacity="0.2" enable-background="new    " width="9" height="55.575"/>
<rect id="sidebar-b_5_" x="304" y="34" opacity="0.2" enable-background="new    " width="9" height="55.575"/>
<rect id="content_12_" x="318" y="34" opacity="0.05" enable-background="new    " width="40" height="55.575"/>
<rect id="sidebar-a_9_" x="432" y="34" opacity="0.2" enable-background="new    " width="9" height="55.575"/>
<rect id="sidebar-b_4_" x="446" y="34" opacity="0.2" enable-background="new    " width="9" height="55.575"/>
<rect id="content_11_" x="388" y="34" opacity="0.05" enable-background="new    " width="39" height="55.575"/>
<rect id="sidebar-a_8_" x="481" y="34" opacity="0.2" enable-background="new    " width="9" height="55.575"/>
<rect id="sidebar-b_3_" x="541" y="34" opacity="0.2" enable-background="new    " width="9" height="55.575"/>
<rect id="content_10_" x="495" y="34" opacity="0.05" enable-background="new    " width="41" height="55.575"/>
<rect id="sidebar-a_7_" x="290" y="115.425" opacity="0.2" enable-background="new    " width="9" height="55.575"/>
<rect id="content_9_" x="304" y="115.425" opacity="0.05" enable-background="new    " width="53" height="55.575"/>
<rect id="sidebar-a_6_" x="446" y="115.425" opacity="0.2" enable-background="new    " width="9" height="55.575"/>
<rect id="content_8_" x="388" y="115.425" opacity="0.05" enable-background="new    " width="53" height="55.575"/>
<rect id="content_7_" x="482" y="115.425" opacity="0.05" enable-background="new    " width="68" height="55.575"/>
<g>
	<path fill="#444444" d="M45.701,19.328h-2.148v6.157h-1.187v-6.157h-2.148v-0.952h5.483V19.328z"/>
	<path fill="#444444" d="M52.025,22.57c0,0.869-0.272,1.589-0.818,2.161s-1.252,0.857-2.122,0.857c-0.853,0-1.545-0.286-2.078-0.857
		s-0.798-1.292-0.798-2.161v-1.279c0-0.866,0.266-1.585,0.798-2.158s1.223-0.859,2.073-0.859c0.869,0,1.577,0.287,2.124,0.859
		s0.82,1.292,0.82,2.158V22.57z M50.843,21.281c0-0.592-0.159-1.079-0.476-1.46s-0.746-0.571-1.287-0.571
		c-0.521,0-0.933,0.19-1.235,0.571s-0.454,0.868-0.454,1.46v1.289c0,0.599,0.151,1.09,0.454,1.472s0.716,0.574,1.24,0.574
		c0.543,0,0.973-0.19,1.287-0.571s0.471-0.873,0.471-1.475V21.281z"/>
	<path fill="#444444" d="M58.851,22.57c0,0.869-0.272,1.589-0.818,2.161s-1.252,0.857-2.122,0.857c-0.853,0-1.545-0.286-2.078-0.857
		s-0.798-1.292-0.798-2.161v-1.279c0-0.866,0.266-1.585,0.798-2.158s1.223-0.859,2.073-0.859c0.869,0,1.577,0.287,2.124,0.859
		s0.82,1.292,0.82,2.158V22.57z M57.669,21.281c0-0.592-0.159-1.079-0.476-1.46s-0.746-0.571-1.287-0.571
		c-0.521,0-0.933,0.19-1.235,0.571s-0.454,0.868-0.454,1.46v1.289c0,0.599,0.151,1.09,0.454,1.472s0.716,0.574,1.24,0.574
		c0.543,0,0.973-0.19,1.287-0.571s0.471-0.873,0.471-1.475V21.281z"/>
	<path fill="#444444" d="M61.322,24.533h3.267v0.952h-4.453v-7.109h1.187V24.533z"/>
	<path fill="#444444" d="M65.545,25.485v-7.109h2.363c0.788,0,1.403,0.162,1.846,0.486s0.664,0.808,0.664,1.453
		c0,0.322-0.093,0.61-0.278,0.864s-0.443,0.443-0.771,0.566c0.423,0.094,0.749,0.298,0.977,0.61s0.342,0.675,0.342,1.089
		c0,0.667-0.218,1.174-0.654,1.521s-1.039,0.52-1.807,0.52H65.545z M66.732,21.369h1.309c0.368,0,0.658-0.087,0.872-0.261
		s0.32-0.421,0.32-0.74c0-0.352-0.112-0.613-0.337-0.784s-0.553-0.256-0.986-0.256h-1.177V21.369z M66.732,22.253v2.28h1.494
		c0.41,0,0.726-0.093,0.947-0.28c0.221-0.187,0.332-0.457,0.332-0.811c0-0.377-0.093-0.669-0.278-0.877
		c-0.186-0.208-0.475-0.312-0.869-0.312H66.732z"/>
	<path fill="#444444" d="M75.804,23.825h-2.784l-0.566,1.66h-1.201l2.612-7.109h1.123l2.583,7.109h-1.207L75.804,23.825z
		 M73.363,22.834h2.104l-1.03-3.037h-0.029L73.363,22.834z"/>
	<path fill="#444444" d="M79.584,22.536v2.949h-1.187v-7.109h2.627c0.794,0,1.408,0.179,1.841,0.537s0.649,0.869,0.649,1.533
		c0,0.368-0.095,0.685-0.286,0.95c-0.189,0.265-0.468,0.478-0.832,0.637c0.4,0.127,0.688,0.334,0.864,0.623s0.264,0.642,0.264,1.062
		v0.591c0,0.208,0.026,0.412,0.078,0.61s0.14,0.35,0.264,0.454v0.112h-1.221c-0.13-0.107-0.214-0.277-0.251-0.508
		c-0.038-0.231-0.057-0.458-0.057-0.679v-0.571c0-0.365-0.104-0.654-0.313-0.869s-0.495-0.322-0.859-0.322H79.584z M79.584,21.584
		h1.377c0.476,0,0.822-0.091,1.04-0.273s0.327-0.46,0.327-0.835c0-0.358-0.107-0.639-0.322-0.842s-0.542-0.305-0.981-0.305h-1.44
		V21.584z"/>
	<path fill="#444444" d="M87.152,22.937h-2.563v-0.952h2.563V22.937z"/>
	<path fill="#444444" d="M89.486,24.533h3.267v0.952H88.3v-7.109h1.187V24.533z"/>
</g>
<g>
	<path fill="#444444" d="M174.086,19.328h-2.148v6.157h-1.187v-6.157h-2.148v-0.952h5.483V19.328z"/>
	<path fill="#444444" d="M180.409,22.57c0,0.869-0.272,1.589-0.818,2.161s-1.252,0.857-2.122,0.857
		c-0.853,0-1.545-0.286-2.078-0.857s-0.798-1.292-0.798-2.161v-1.279c0-0.866,0.266-1.585,0.798-2.158s1.223-0.859,2.073-0.859
		c0.869,0,1.577,0.287,2.124,0.859s0.82,1.292,0.82,2.158V22.57z M179.227,21.281c0-0.592-0.159-1.079-0.476-1.46
		s-0.746-0.571-1.287-0.571c-0.521,0-0.933,0.19-1.235,0.571s-0.454,0.868-0.454,1.46v1.289c0,0.599,0.151,1.09,0.454,1.472
		s0.716,0.574,1.24,0.574c0.543,0,0.973-0.19,1.287-0.571s0.471-0.873,0.471-1.475V21.281z"/>
	<path fill="#444444" d="M187.235,22.57c0,0.869-0.272,1.589-0.818,2.161s-1.252,0.857-2.122,0.857
		c-0.853,0-1.545-0.286-2.078-0.857s-0.798-1.292-0.798-2.161v-1.279c0-0.866,0.266-1.585,0.798-2.158s1.223-0.859,2.073-0.859
		c0.869,0,1.577,0.287,2.124,0.859s0.82,1.292,0.82,2.158V22.57z M186.053,21.281c0-0.592-0.159-1.079-0.476-1.46
		s-0.746-0.571-1.287-0.571c-0.521,0-0.933,0.19-1.235,0.571s-0.454,0.868-0.454,1.46v1.289c0,0.599,0.151,1.09,0.454,1.472
		s0.716,0.574,1.24,0.574c0.543,0,0.973-0.19,1.287-0.571s0.471-0.873,0.471-1.475V21.281z"/>
	<path fill="#444444" d="M189.706,24.533h3.267v0.952h-4.453v-7.109h1.187V24.533z"/>
	<path fill="#444444" d="M193.929,25.485v-7.109h2.363c0.788,0,1.403,0.162,1.846,0.486s0.664,0.808,0.664,1.453
		c0,0.322-0.093,0.61-0.278,0.864s-0.443,0.443-0.771,0.566c0.423,0.094,0.749,0.298,0.977,0.61s0.342,0.675,0.342,1.089
		c0,0.667-0.218,1.174-0.654,1.521s-1.039,0.52-1.807,0.52H193.929z M195.116,21.369h1.309c0.368,0,0.658-0.087,0.872-0.261
		s0.32-0.421,0.32-0.74c0-0.352-0.112-0.613-0.337-0.784s-0.553-0.256-0.986-0.256h-1.177V21.369z M195.116,22.253v2.28h1.494
		c0.41,0,0.726-0.093,0.947-0.28c0.221-0.187,0.332-0.457,0.332-0.811c0-0.377-0.093-0.669-0.278-0.877
		c-0.186-0.208-0.475-0.312-0.869-0.312H195.116z"/>
	<path fill="#444444" d="M204.188,23.825h-2.783l-0.566,1.66h-1.201l2.612-7.109h1.123l2.583,7.109h-1.207L204.188,23.825z
		 M201.747,22.834h2.104l-1.03-3.037h-0.029L201.747,22.834z"/>
	<path fill="#444444" d="M207.968,22.536v2.949h-1.187v-7.109h2.627c0.794,0,1.408,0.179,1.841,0.537s0.649,0.869,0.649,1.533
		c0,0.368-0.095,0.685-0.286,0.95c-0.189,0.265-0.468,0.478-0.832,0.637c0.4,0.127,0.688,0.334,0.864,0.623s0.264,0.642,0.264,1.062
		v0.591c0,0.208,0.026,0.412,0.078,0.61s0.14,0.35,0.264,0.454v0.112h-1.221c-0.13-0.107-0.214-0.277-0.251-0.508
		c-0.038-0.231-0.057-0.458-0.057-0.679v-0.571c0-0.365-0.104-0.654-0.313-0.869s-0.495-0.322-0.859-0.322H207.968z M207.968,21.584
		h1.377c0.476,0,0.822-0.091,1.04-0.273s0.327-0.46,0.327-0.835c0-0.358-0.107-0.639-0.322-0.842s-0.542-0.305-0.981-0.305h-1.44
		V21.584z"/>
	<path fill="#444444" d="M215.536,22.937h-2.563v-0.952h2.563V22.937z"/>
	<path fill="#444444" d="M217.87,22.536v2.949h-1.187v-7.109h2.627c0.794,0,1.408,0.179,1.841,0.537s0.649,0.869,0.649,1.533
		c0,0.368-0.095,0.685-0.286,0.95c-0.189,0.265-0.468,0.478-0.832,0.637c0.4,0.127,0.688,0.334,0.864,0.623s0.264,0.642,0.264,1.062
		v0.591c0,0.208,0.026,0.412,0.078,0.61s0.14,0.35,0.264,0.454v0.112h-1.221c-0.13-0.107-0.214-0.277-0.251-0.508
		c-0.038-0.231-0.057-0.458-0.057-0.679v-0.571c0-0.365-0.104-0.654-0.313-0.869s-0.495-0.322-0.859-0.322H217.87z M217.87,21.584
		h1.377c0.476,0,0.822-0.091,1.04-0.273s0.327-0.46,0.327-0.835c0-0.358-0.107-0.639-0.322-0.842s-0.542-0.305-0.981-0.305h-1.44
		V21.584z"/>
</g>
<g>
	<path fill="#444444" d="M14.218,46.335h3.267v0.952h-4.453v-7.109h1.187V46.335z"/>
	<path fill="#444444" d="M23.783,44.373c0,0.869-0.272,1.589-0.818,2.161s-1.252,0.857-2.122,0.857
		c-0.853,0-1.545-0.286-2.078-0.857s-0.798-1.292-0.798-2.161v-1.279c0-0.866,0.266-1.585,0.798-2.158s1.223-0.859,2.073-0.859
		c0.869,0,1.577,0.287,2.124,0.859s0.82,1.292,0.82,2.158V44.373z M22.601,43.083c0-0.592-0.159-1.079-0.476-1.46
		s-0.746-0.571-1.287-0.571c-0.521,0-0.933,0.19-1.235,0.571s-0.454,0.868-0.454,1.46v1.289c0,0.599,0.151,1.09,0.454,1.472
		s0.716,0.574,1.24,0.574c0.543,0,0.973-0.19,1.287-0.571s0.471-0.873,0.471-1.475V43.083z"/>
	<path fill="#444444" d="M30.365,46.326c-0.189,0.27-0.499,0.515-0.93,0.735s-0.985,0.33-1.663,0.33
		c-0.856,0-1.561-0.271-2.114-0.813s-0.83-1.243-0.83-2.102v-1.484c0-0.859,0.261-1.56,0.784-2.102s1.197-0.813,2.024-0.813
		c0.836,0,1.487,0.206,1.951,0.618s0.701,0.948,0.71,1.609l-0.01,0.029h-1.123c-0.026-0.391-0.165-0.706-0.417-0.945
		s-0.618-0.359-1.096-0.359c-0.492,0-0.888,0.184-1.189,0.551s-0.452,0.834-0.452,1.4v1.493c0,0.572,0.164,1.043,0.491,1.412
		s0.751,0.554,1.272,0.554c0.371,0,0.672-0.043,0.903-0.129s0.399-0.188,0.503-0.305v-1.441h-1.411v-0.889h2.598V46.326z"/>
	<path fill="#444444" d="M37.362,44.373c0,0.869-0.272,1.589-0.818,2.161c-0.545,0.571-1.252,0.857-2.121,0.857
		c-0.853,0-1.545-0.286-2.078-0.857s-0.798-1.292-0.798-2.161v-1.279c0-0.866,0.266-1.585,0.798-2.158s1.223-0.859,2.073-0.859
		c0.869,0,1.577,0.287,2.124,0.859s0.82,1.292,0.82,2.158V44.373z M36.18,43.083c0-0.592-0.158-1.079-0.477-1.46
		c-0.316-0.381-0.745-0.571-1.286-0.571c-0.521,0-0.933,0.19-1.235,0.571s-0.454,0.868-0.454,1.46v1.289
		c0,0.599,0.151,1.09,0.454,1.472s0.716,0.574,1.24,0.574c0.544,0,0.973-0.19,1.287-0.571c0.313-0.381,0.471-0.873,0.471-1.475
		V43.083z"/>
</g>
<g>
	<path fill="#444444" d="M110.154,47.288h-1.182v-3.032h-3.184v3.032h-1.187v-7.109h1.187v3.125h3.184v-3.125h1.182V47.288z"/>
	<path fill="#444444" d="M116.009,44.089h-3.11v2.246h3.608v0.952h-4.795v-7.109h4.761v0.952h-3.574v2.007h3.11V44.089z"/>
	<path fill="#444444" d="M121.36,45.627h-2.783l-0.566,1.66h-1.201l2.612-7.109h1.123l2.583,7.109h-1.206L121.36,45.627z
		 M118.919,44.636h2.104l-1.03-3.037h-0.029L118.919,44.636z"/>
	<path fill="#444444" d="M123.953,47.288v-7.109h2.305c0.902,0,1.635,0.282,2.2,0.845s0.847,1.288,0.847,2.173v1.079
		c0,0.889-0.282,1.613-0.847,2.173s-1.298,0.84-2.2,0.84H123.953z M125.139,41.13v5.205h1.084c0.589,0,1.052-0.192,1.389-0.576
		s0.505-0.879,0.505-1.488v-1.088c0-0.602-0.168-1.094-0.505-1.478s-0.8-0.576-1.389-0.576H125.139z"/>
	<path fill="#444444" d="M134.822,44.089h-3.11v2.246h3.608v0.952h-4.795v-7.109h4.761v0.952h-3.574v2.007h3.11V44.089z"/>
	<path fill="#444444" d="M137.508,44.338v2.949h-1.187v-7.109h2.627c0.794,0,1.408,0.179,1.841,0.537s0.649,0.869,0.649,1.533
		c0,0.368-0.095,0.685-0.286,0.95s-0.468,0.478-0.833,0.637c0.4,0.127,0.688,0.334,0.864,0.623s0.264,0.642,0.264,1.062v0.591
		c0,0.208,0.026,0.412,0.078,0.61s0.14,0.35,0.264,0.454v0.112h-1.221c-0.13-0.107-0.214-0.277-0.251-0.508
		s-0.056-0.458-0.056-0.679V45.53c0-0.365-0.104-0.654-0.313-0.869s-0.495-0.322-0.859-0.322H137.508z M137.508,43.386h1.377
		c0.475,0,0.822-0.091,1.04-0.273s0.327-0.46,0.327-0.835c0-0.358-0.107-0.639-0.322-0.842s-0.542-0.305-0.981-0.305h-1.44V43.386z"
		/>
	<path fill="#444444" d="M142.942,47.288v-7.109h2.363c0.788,0,1.403,0.162,1.846,0.486s0.664,0.808,0.664,1.453
		c0,0.322-0.093,0.61-0.278,0.864s-0.442,0.443-0.771,0.566c0.423,0.094,0.749,0.298,0.977,0.61s0.342,0.675,0.342,1.089
		c0,0.667-0.218,1.174-0.654,1.521s-1.038,0.52-1.807,0.52H142.942z M144.129,43.171h1.309c0.368,0,0.658-0.087,0.871-0.261
		c0.214-0.174,0.32-0.421,0.32-0.74c0-0.352-0.112-0.613-0.337-0.784s-0.554-0.256-0.986-0.256h-1.177V43.171z M144.129,44.055v2.28
		h1.494c0.41,0,0.726-0.093,0.947-0.28c0.222-0.187,0.332-0.457,0.332-0.811c0-0.377-0.093-0.669-0.278-0.877
		c-0.186-0.208-0.476-0.312-0.869-0.312H144.129z"/>
	<path fill="#444444" d="M153.201,45.627h-2.783l-0.566,1.66h-1.201l2.612-7.109h1.123l2.583,7.109h-1.206L153.201,45.627z
		 M150.76,44.636h2.104l-1.03-3.037h-0.029L150.76,44.636z"/>
	<path fill="#444444" d="M156.98,44.338v2.949h-1.187v-7.109h2.627c0.794,0,1.408,0.179,1.841,0.537s0.649,0.869,0.649,1.533
		c0,0.368-0.095,0.685-0.286,0.95c-0.189,0.265-0.468,0.478-0.832,0.637c0.4,0.127,0.688,0.334,0.864,0.623s0.264,0.642,0.264,1.062
		v0.591c0,0.208,0.026,0.412,0.078,0.61s0.14,0.35,0.264,0.454v0.112h-1.221c-0.13-0.107-0.214-0.277-0.251-0.508
		c-0.038-0.231-0.057-0.458-0.057-0.679V45.53c0-0.365-0.104-0.654-0.313-0.869s-0.495-0.322-0.859-0.322H156.98z M156.98,43.386
		h1.377c0.476,0,0.822-0.091,1.04-0.273s0.327-0.46,0.327-0.835c0-0.358-0.107-0.639-0.322-0.842s-0.542-0.305-0.981-0.305h-1.44
		V43.386z"/>
</g>
<g>
	<path fill="#444444" d="M217.613,45.456c0-0.295-0.11-0.537-0.33-0.725s-0.608-0.356-1.165-0.505
		c-0.794-0.208-1.405-0.484-1.833-0.828s-0.642-0.793-0.642-1.35c0-0.573,0.237-1.045,0.71-1.416s1.085-0.557,1.833-0.557
		c0.781,0,1.409,0.211,1.882,0.632s0.702,0.927,0.686,1.516l-0.01,0.029h-1.138c0-0.365-0.124-0.66-0.371-0.886
		s-0.601-0.339-1.06-0.339c-0.433,0-0.766,0.094-0.999,0.283s-0.349,0.432-0.349,0.73c0,0.27,0.126,0.494,0.378,0.672
		c0.252,0.179,0.67,0.348,1.252,0.507c0.765,0.205,1.346,0.488,1.743,0.85s0.596,0.822,0.596,1.382c0,0.592-0.237,1.063-0.71,1.414
		s-1.096,0.525-1.868,0.525c-0.742,0-1.393-0.198-1.953-0.593s-0.832-0.935-0.815-1.619l0.01-0.029h1.143
		c0,0.433,0.15,0.756,0.449,0.969s0.688,0.32,1.167,0.32c0.439,0,0.781-0.088,1.025-0.265
		C217.491,45.997,217.613,45.757,217.613,45.456z"/>
	<path fill="#444444" d="M224.346,44.089h-3.11v2.246h3.608v0.952h-4.795v-7.109h4.761v0.952h-3.574v2.007h3.11V44.089z"/>
	<path fill="#444444" d="M229.698,45.627h-2.783l-0.566,1.66h-1.201l2.612-7.109h1.123l2.583,7.109h-1.206L229.698,45.627z
		 M227.257,44.636h2.104l-1.03-3.037h-0.029L227.257,44.636z"/>
	<path fill="#444444" d="M233.477,44.338v2.949h-1.187v-7.109h2.627c0.794,0,1.408,0.179,1.841,0.537s0.649,0.869,0.649,1.533
		c0,0.368-0.095,0.685-0.286,0.95s-0.468,0.478-0.833,0.637c0.4,0.127,0.688,0.334,0.864,0.623s0.264,0.642,0.264,1.062v0.591
		c0,0.208,0.026,0.412,0.078,0.61s0.14,0.35,0.264,0.454v0.112h-1.221c-0.13-0.107-0.214-0.277-0.251-0.508
		s-0.056-0.458-0.056-0.679V45.53c0-0.365-0.104-0.654-0.313-0.869s-0.495-0.322-0.859-0.322H233.477z M233.477,43.386h1.377
		c0.475,0,0.822-0.091,1.04-0.273s0.327-0.46,0.327-0.835c0-0.358-0.107-0.639-0.322-0.842s-0.542-0.305-0.981-0.305h-1.44V43.386z"
		/>
	<path fill="#444444" d="M244.098,44.929l0.01,0.029c0.012,0.719-0.221,1.305-0.701,1.755s-1.131,0.676-1.951,0.676
		c-0.83,0-1.504-0.279-2.023-0.837s-0.779-1.272-0.779-2.141v-1.353c0-0.866,0.256-1.58,0.769-2.141s1.179-0.842,2-0.842
		c0.84,0,1.5,0.221,1.984,0.662c0.482,0.441,0.719,1.034,0.705,1.78l-0.01,0.029h-1.146c0-0.479-0.131-0.851-0.389-1.118
		c-0.26-0.267-0.641-0.4-1.145-0.4c-0.485,0-0.871,0.192-1.155,0.576s-0.427,0.865-0.427,1.444v1.361
		c0,0.585,0.146,1.07,0.437,1.454s0.685,0.576,1.179,0.576c0.492,0,0.865-0.131,1.119-0.394c0.254-0.263,0.381-0.635,0.381-1.115
		H244.098z"/>
	<path fill="#444444" d="M250.821,47.288h-1.182v-3.032h-3.184v3.032h-1.187v-7.109h1.187v3.125h3.184v-3.125h1.182V47.288z"/>
</g>
<g>
	<path fill="#444444" d="M120.806,62.531L122.852,68h0.029l2.051-5.469h1.538v7.109h-1.187v-2.422l0.117-3.081l-0.029-0.005
		l-2.109,5.508h-0.796l-2.1-5.493l-0.029,0.005l0.117,3.066v2.422h-1.187v-7.109H120.806z"/>
	<path fill="#444444" d="M132.324,66.442h-3.11v2.246h3.608v0.952h-4.795v-7.109h4.761v0.952h-3.574v2.007h3.11V66.442z"/>
	<path fill="#444444" d="M139.375,69.64h-1.182l-3.154-5.19l-0.029,0.01v5.181h-1.187v-7.109h1.187l3.154,5.186l0.029-0.01v-5.176
		h1.182V69.64z"/>
	<path fill="#444444" d="M146.334,62.531v4.766c0,0.788-0.258,1.393-0.771,1.814c-0.516,0.421-1.188,0.632-2.018,0.632
		c-0.813,0-1.473-0.211-1.977-0.635s-0.757-1.027-0.757-1.812v-4.766h1.187v4.762c0,0.498,0.14,0.872,0.42,1.123
		c0.279,0.25,0.656,0.375,1.127,0.375c0.488,0,0.877-0.125,1.168-0.375c0.289-0.25,0.434-0.625,0.434-1.123v-4.762H146.334z"/>
</g>
<g>
	<path fill="#444444" d="M108.896,88.168h-2.148v6.157h-1.187v-6.157h-2.148v-0.952h5.483V88.168z"/>
	<path fill="#444444" d="M115.219,91.41c0,0.869-0.272,1.589-0.818,2.161s-1.252,0.857-2.122,0.857
		c-0.853,0-1.545-0.286-2.078-0.857s-0.798-1.292-0.798-2.161v-1.279c0-0.866,0.266-1.585,0.798-2.158s1.223-0.859,2.073-0.859
		c0.869,0,1.577,0.287,2.124,0.859s0.82,1.292,0.82,2.158V91.41z M114.038,90.121c0-0.592-0.159-1.079-0.476-1.46
		s-0.746-0.571-1.287-0.571c-0.521,0-0.933,0.19-1.235,0.571s-0.454,0.868-0.454,1.46v1.289c0,0.599,0.151,1.09,0.454,1.472
		s0.716,0.574,1.24,0.574c0.543,0,0.973-0.19,1.287-0.571s0.471-0.873,0.471-1.475V90.121z"/>
	<path fill="#444444" d="M117.69,91.63v2.695h-1.187v-7.109h2.778c0.785,0,1.399,0.203,1.843,0.608s0.667,0.938,0.667,1.599
		c0,0.667-0.222,1.202-0.667,1.604s-1.059,0.603-1.843,0.603H117.69z M117.69,90.678h1.592c0.439,0,0.77-0.117,0.991-0.352
		s0.332-0.532,0.332-0.894s-0.111-0.663-0.332-0.903s-0.552-0.361-0.991-0.361h-1.592V90.678z"/>
	<path fill="#444444" d="M125.097,91.776h-2.563v-0.952h2.563V91.776z"/>
	<path fill="#444444" d="M131.103,88.168h-2.148v6.157h-1.187v-6.157h-2.148v-0.952h5.483V88.168z"/>
	<path fill="#444444" d="M136.328,91.127h-3.11v2.246h3.608v0.952h-4.795v-7.109h4.761v0.952h-3.574v2.007h3.11V91.127z"/>
	<path fill="#444444" d="M141.679,92.665h-2.783l-0.566,1.66h-1.201l2.612-7.109h1.123l2.583,7.109h-1.205L141.679,92.665z
		 M139.238,91.674h2.104l-1.03-3.037h-0.029L139.238,91.674z"/>
	<path fill="#444444" d="M148.124,92.494c0-0.295-0.109-0.537-0.33-0.725c-0.219-0.188-0.607-0.356-1.164-0.505
		c-0.794-0.208-1.405-0.484-1.834-0.828c-0.428-0.343-0.642-0.793-0.642-1.35c0-0.573,0.237-1.045,0.71-1.416
		c0.475-0.371,1.085-0.557,1.834-0.557c0.781,0,1.408,0.211,1.883,0.632c0.473,0.421,0.702,0.927,0.686,1.516l-0.01,0.029h-1.138
		c0-0.365-0.124-0.66-0.371-0.886s-0.601-0.339-1.06-0.339c-0.433,0-0.766,0.094-0.998,0.283c-0.233,0.188-0.35,0.432-0.35,0.73
		c0,0.27,0.126,0.494,0.379,0.672c0.252,0.179,0.669,0.348,1.252,0.507c0.765,0.205,1.346,0.488,1.743,0.85s0.596,0.822,0.596,1.382
		c0,0.592-0.237,1.063-0.71,1.414c-0.475,0.35-1.097,0.525-1.868,0.525c-0.742,0-1.394-0.198-1.953-0.593s-0.832-0.935-0.815-1.619
		l0.01-0.029h1.143c0,0.433,0.149,0.756,0.449,0.969s0.688,0.32,1.167,0.32c0.439,0,0.781-0.088,1.025-0.265
		C148.002,93.034,148.124,92.795,148.124,92.494z"/>
	<path fill="#444444" d="M154.858,91.127h-3.11v2.246h3.608v0.952h-4.795v-7.109h4.761v0.952h-3.574v2.007h3.11V91.127z"/>
	<path fill="#444444" d="M157.544,91.376v2.949h-1.187v-7.109h2.627c0.794,0,1.408,0.179,1.841,0.537s0.649,0.869,0.649,1.533
		c0,0.368-0.095,0.685-0.286,0.95c-0.189,0.265-0.468,0.478-0.832,0.637c0.4,0.127,0.688,0.334,0.864,0.623s0.264,0.642,0.264,1.062
		v0.591c0,0.208,0.026,0.412,0.078,0.61s0.14,0.35,0.264,0.454v0.112h-1.221c-0.13-0.107-0.214-0.277-0.251-0.508
		c-0.038-0.231-0.057-0.458-0.057-0.679v-0.571c0-0.365-0.104-0.654-0.313-0.869s-0.495-0.322-0.859-0.322H157.544z M157.544,90.424
		h1.377c0.476,0,0.822-0.091,1.04-0.273s0.327-0.46,0.327-0.835c0-0.358-0.107-0.639-0.322-0.842s-0.542-0.305-0.981-0.305h-1.44
		V90.424z"/>
</g>
<g>
	<path fill="#444444" d="M124.041,114.931h-2.148v6.157h-1.187v-6.157h-2.148v-0.952h5.483V114.931z"/>
	<path fill="#444444" d="M130.364,118.173c0,0.869-0.272,1.589-0.818,2.161s-1.252,0.857-2.122,0.857
		c-0.853,0-1.545-0.286-2.078-0.857s-0.798-1.292-0.798-2.161v-1.279c0-0.866,0.266-1.585,0.798-2.158s1.223-0.859,2.073-0.859
		c0.869,0,1.577,0.287,2.124,0.859s0.82,1.292,0.82,2.158V118.173z M129.182,116.884c0-0.592-0.159-1.079-0.476-1.46
		s-0.746-0.571-1.287-0.571c-0.521,0-0.933,0.19-1.235,0.571s-0.454,0.868-0.454,1.46v1.289c0,0.599,0.151,1.09,0.454,1.472
		s0.716,0.574,1.24,0.574c0.543,0,0.973-0.19,1.287-0.571s0.471-0.873,0.471-1.475V116.884z"/>
	<path fill="#444444" d="M132.835,118.393v2.695h-1.187v-7.109h2.778c0.785,0,1.399,0.203,1.843,0.608s0.667,0.938,0.667,1.599
		c0,0.667-0.222,1.202-0.667,1.604s-1.059,0.603-1.843,0.603H132.835z M132.835,117.44h1.592c0.439,0,0.77-0.117,0.991-0.352
		s0.332-0.532,0.332-0.894s-0.111-0.663-0.332-0.903s-0.552-0.361-0.991-0.361h-1.592V117.44z"/>
	<path fill="#444444" d="M140.242,118.539h-2.563v-0.952h2.563V118.539z"/>
	<path fill="#444444" d="M145.242,119.428h-2.783l-0.566,1.66h-1.201l2.612-7.109h1.123l2.583,7.109h-1.206L145.242,119.428z
		 M142.801,118.437h2.104l-1.03-3.037h-0.029L142.801,118.437z"/>
</g>
<g>
	<path fill="#444444" d="M124.06,141.931h-2.148v6.157h-1.187v-6.157h-2.148v-0.952h5.483V141.931z"/>
	<path fill="#444444" d="M130.384,145.173c0,0.869-0.272,1.589-0.818,2.161s-1.252,0.857-2.122,0.857
		c-0.853,0-1.545-0.286-2.078-0.857s-0.798-1.292-0.798-2.161v-1.279c0-0.866,0.266-1.585,0.798-2.158s1.223-0.859,2.073-0.859
		c0.869,0,1.577,0.287,2.124,0.859s0.82,1.292,0.82,2.158V145.173z M129.202,143.884c0-0.592-0.159-1.079-0.476-1.46
		s-0.746-0.571-1.287-0.571c-0.521,0-0.933,0.19-1.235,0.571s-0.454,0.868-0.454,1.46v1.289c0,0.599,0.151,1.09,0.454,1.472
		s0.716,0.574,1.24,0.574c0.543,0,0.973-0.19,1.287-0.571s0.471-0.873,0.471-1.475V143.884z"/>
	<path fill="#444444" d="M132.854,145.393v2.695h-1.187v-7.109h2.778c0.785,0,1.399,0.203,1.843,0.608s0.667,0.938,0.667,1.599
		c0,0.667-0.222,1.202-0.667,1.604s-1.059,0.603-1.843,0.603H132.854z M132.854,144.44h1.592c0.439,0,0.77-0.117,0.991-0.352
		s0.332-0.532,0.332-0.894s-0.111-0.663-0.332-0.903s-0.552-0.361-0.991-0.361h-1.592V144.44z"/>
	<path fill="#444444" d="M140.261,145.539h-2.563v-0.952h2.563V145.539z"/>
	<path fill="#444444" d="M141.409,148.088v-7.109h2.363c0.788,0,1.403,0.162,1.846,0.486s0.664,0.808,0.664,1.453
		c0,0.322-0.093,0.61-0.278,0.864s-0.442,0.443-0.771,0.566c0.423,0.094,0.749,0.298,0.977,0.61s0.342,0.675,0.342,1.089
		c0,0.667-0.218,1.174-0.654,1.521s-1.038,0.52-1.807,0.52H141.409z M142.595,143.972h1.309c0.368,0,0.658-0.087,0.871-0.261
		c0.214-0.174,0.32-0.421,0.32-0.74c0-0.352-0.112-0.613-0.337-0.784s-0.554-0.256-0.986-0.256h-1.177V143.972z M142.595,144.855
		v2.28h1.494c0.41,0,0.726-0.093,0.947-0.28c0.222-0.187,0.332-0.457,0.332-0.811c0-0.377-0.093-0.669-0.278-0.877
		c-0.186-0.208-0.476-0.312-0.869-0.312H142.595z"/>
</g>
<g>
	<path fill="#444444" d="M124.085,168.931h-2.148v6.157h-1.187v-6.157h-2.148v-0.952h5.483V168.931z"/>
	<path fill="#444444" d="M130.408,172.173c0,0.869-0.272,1.589-0.818,2.161c-0.545,0.57-1.252,0.856-2.122,0.856
		c-0.853,0-1.545-0.286-2.078-0.856c-0.532-0.572-0.798-1.292-0.798-2.161v-1.279c0-0.866,0.266-1.585,0.798-2.158
		s1.223-0.859,2.073-0.859c0.869,0,1.577,0.286,2.124,0.859s0.82,1.292,0.82,2.158V172.173z M129.226,170.884
		c0-0.593-0.159-1.079-0.476-1.46s-0.746-0.571-1.287-0.571c-0.521,0-0.933,0.19-1.235,0.571s-0.454,0.867-0.454,1.46v1.289
		c0,0.599,0.151,1.09,0.454,1.472c0.303,0.383,0.716,0.574,1.24,0.574c0.543,0,0.973-0.19,1.287-0.571s0.471-0.872,0.471-1.475
		V170.884z"/>
	<path fill="#444444" d="M132.879,172.393v2.695h-1.187v-7.109h2.778c0.785,0,1.399,0.203,1.843,0.607
		c0.444,0.406,0.667,0.939,0.667,1.6c0,0.668-0.222,1.202-0.667,1.604c-0.444,0.402-1.059,0.604-1.843,0.604H132.879z
		 M132.879,171.44h1.592c0.439,0,0.77-0.117,0.991-0.352s0.332-0.532,0.332-0.894s-0.111-0.662-0.332-0.903
		s-0.552-0.361-0.991-0.361h-1.592V171.44z"/>
	<path fill="#444444" d="M140.286,172.539h-2.563v-0.952h2.563V172.539z"/>
	<path fill="#444444" d="M146.619,172.729l0.01,0.029c0.013,0.72-0.221,1.305-0.7,1.755c-0.48,0.451-1.131,0.677-1.951,0.677
		c-0.83,0-1.505-0.279-2.024-0.837c-0.519-0.559-0.778-1.272-0.778-2.142v-1.353c0-0.865,0.256-1.58,0.769-2.141
		c0.514-0.563,1.18-0.843,2-0.843c0.84,0,1.501,0.221,1.985,0.661c0.482,0.441,0.718,1.035,0.705,1.78l-0.01,0.029h-1.147
		c0-0.479-0.13-0.851-0.388-1.118c-0.26-0.268-0.641-0.4-1.146-0.4c-0.485,0-0.87,0.191-1.155,0.576
		c-0.284,0.383-0.427,0.865-0.427,1.443v1.361c0,0.586,0.146,1.07,0.437,1.453c0.292,0.385,0.685,0.576,1.18,0.576
		c0.491,0,0.864-0.131,1.118-0.395c0.254-0.263,0.381-0.635,0.381-1.114H146.619z"/>
</g>
<g>
	<path fill="#444444" d="M111.347,193.729l2.046,5.469h0.029l2.051-5.469h1.538v7.109h-1.187v-2.422l0.117-3.081l-0.029-0.005
		l-2.109,5.508h-0.796l-2.1-5.493l-0.029,0.005l0.117,3.066v2.422h-1.187v-7.109H111.347z"/>
	<path fill="#444444" d="M122.422,199.178h-2.783l-0.566,1.66h-1.201l2.612-7.109h1.123l2.583,7.109h-1.206L122.422,199.178z
		 M119.98,198.187h2.104l-1.03-3.037h-0.029L119.98,198.187z"/>
	<path fill="#444444" d="M126.269,200.838h-1.187v-7.109h1.187V200.838z"/>
	<path fill="#444444" d="M133.442,200.838h-1.182l-3.154-5.19l-0.029,0.01v5.181h-1.187v-7.109h1.187l3.154,5.186l0.029-0.01v-5.176
		h1.182V200.838z"/>
	<path fill="#444444" d="M137.134,198.289h-2.563v-0.952h2.563V198.289z"/>
	<path fill="#444444" d="M143.14,194.681h-2.149v6.157h-1.187v-6.157h-2.148v-0.952h5.484V194.681z"/>
	<path fill="#444444" d="M149.462,197.923c0,0.869-0.272,1.589-0.818,2.161c-0.545,0.57-1.252,0.856-2.121,0.856
		c-0.853,0-1.545-0.286-2.078-0.856c-0.531-0.572-0.798-1.292-0.798-2.161v-1.279c0-0.866,0.267-1.585,0.798-2.158
		c0.533-0.573,1.224-0.859,2.073-0.859c0.869,0,1.577,0.286,2.124,0.859s0.82,1.292,0.82,2.158V197.923z M148.281,196.634
		c0-0.593-0.158-1.079-0.477-1.46c-0.316-0.381-0.746-0.571-1.286-0.571c-0.521,0-0.933,0.19-1.235,0.571s-0.454,0.867-0.454,1.46
		v1.289c0,0.599,0.151,1.09,0.454,1.472c0.303,0.383,0.716,0.574,1.24,0.574c0.544,0,0.973-0.19,1.287-0.571
		c0.313-0.381,0.471-0.872,0.471-1.475V196.634z"/>
	<path fill="#444444" d="M151.933,198.143v2.695h-1.187v-7.109h2.778c0.784,0,1.398,0.203,1.844,0.607
		c0.443,0.406,0.666,0.939,0.666,1.6c0,0.668-0.223,1.202-0.666,1.604c-0.445,0.402-1.06,0.604-1.844,0.604H151.933z
		 M151.933,197.19h1.592c0.439,0,0.77-0.117,0.991-0.352s0.332-0.532,0.332-0.894s-0.11-0.662-0.332-0.903s-0.552-0.361-0.991-0.361
		h-1.592V197.19z"/>
</g>
<g>
	<path fill="#444444" d="M116.309,233.579l0.01,0.029c0.013,0.72-0.221,1.305-0.701,1.755c-0.48,0.451-1.13,0.677-1.951,0.677
		c-0.83,0-1.505-0.279-2.024-0.837c-0.519-0.559-0.779-1.272-0.779-2.142v-1.353c0-0.865,0.256-1.58,0.769-2.141
		c0.513-0.563,1.179-0.843,2-0.843c0.84,0,1.501,0.221,1.985,0.661c0.483,0.441,0.719,1.035,0.706,1.78l-0.01,0.029h-1.147
		c0-0.479-0.129-0.851-0.388-1.118s-0.641-0.4-1.145-0.4c-0.485,0-0.87,0.191-1.155,0.576c-0.285,0.383-0.427,0.865-0.427,1.443
		v1.361c0,0.586,0.146,1.07,0.437,1.453c0.292,0.385,0.685,0.576,1.179,0.576c0.492,0,0.864-0.131,1.118-0.395
		c0.254-0.263,0.381-0.635,0.381-1.114H116.309z"/>
	<path fill="#444444" d="M123.023,233.022c0,0.869-0.272,1.589-0.818,2.161c-0.545,0.57-1.252,0.856-2.122,0.856
		c-0.853,0-1.545-0.286-2.078-0.856c-0.532-0.572-0.798-1.292-0.798-2.161v-1.279c0-0.866,0.266-1.585,0.798-2.158
		s1.223-0.859,2.073-0.859c0.869,0,1.577,0.286,2.124,0.859s0.82,1.292,0.82,2.158V233.022z M121.841,231.733
		c0-0.593-0.159-1.079-0.476-1.46s-0.746-0.571-1.287-0.571c-0.521,0-0.933,0.19-1.235,0.571s-0.454,0.867-0.454,1.46v1.289
		c0,0.599,0.151,1.09,0.454,1.472c0.303,0.383,0.716,0.574,1.24,0.574c0.543,0,0.973-0.19,1.287-0.571s0.471-0.872,0.471-1.475
		V231.733z"/>
	<path fill="#444444" d="M129.859,235.938h-1.182l-3.154-5.19l-0.029,0.01v5.181h-1.187v-7.109h1.187l3.154,5.186l0.029-0.01v-5.176
		h1.182V235.938z"/>
	<path fill="#444444" d="M136.275,229.78h-2.148v6.157h-1.187v-6.157h-2.148v-0.952h5.483V229.78z"/>
	<path fill="#444444" d="M141.499,232.739h-3.11v2.246h3.609v0.952h-4.795v-7.109h4.76v0.952h-3.574v2.007h3.11V232.739z"/>
	<path fill="#444444" d="M148.551,235.938h-1.182l-3.154-5.19l-0.029,0.01v5.181h-1.187v-7.109h1.187l3.154,5.186l0.029-0.01v-5.176
		h1.182V235.938z"/>
	<path fill="#444444" d="M154.967,229.78h-2.148v6.157h-1.187v-6.157h-2.148v-0.952h5.483V229.78z"/>
</g>
<g>
	<path fill="#444444" d="M100.718,265.38l2.046,5.469h0.029l2.051-5.469h1.538v7.109h-1.187v-2.422l0.117-3.081l-0.029-0.005
		l-2.109,5.508h-0.796l-2.1-5.493l-0.029,0.005l0.117,3.066v2.422H99.18v-7.109H100.718z"/>
	<path fill="#444444" d="M111.792,270.829h-2.783l-0.566,1.66h-1.201l2.612-7.109h1.123l2.583,7.109h-1.206L111.792,270.829z
		 M109.351,269.838h2.104l-1.03-3.037h-0.029L109.351,269.838z"/>
	<path fill="#444444" d="M115.64,272.489h-1.187v-7.109h1.187V272.489z"/>
	<path fill="#444444" d="M122.813,272.489h-1.182l-3.154-5.19l-0.029,0.01v5.181h-1.187v-7.109h1.187l3.154,5.186l0.029-0.01v-5.176
		h1.182V272.489z"/>
	<path fill="#444444" d="M126.504,269.94h-2.563v-0.952h2.563V269.94z"/>
	<path fill="#444444" d="M127.652,272.489v-7.109h2.363c0.788,0,1.403,0.162,1.846,0.485c0.443,0.324,0.664,0.809,0.664,1.453
		c0,0.322-0.093,0.61-0.278,0.864s-0.443,0.442-0.771,0.566c0.423,0.095,0.749,0.298,0.977,0.61s0.342,0.676,0.342,1.089
		c0,0.667-0.218,1.175-0.654,1.521c-0.436,0.348-1.039,0.521-1.807,0.521H127.652z M128.838,268.373h1.309
		c0.368,0,0.658-0.087,0.872-0.262c0.213-0.174,0.32-0.42,0.32-0.739c0-0.352-0.112-0.612-0.337-0.784
		c-0.225-0.17-0.553-0.256-0.986-0.256h-1.177V268.373z M128.838,269.257v2.28h1.494c0.41,0,0.726-0.094,0.947-0.28
		s0.332-0.457,0.332-0.812c0-0.377-0.093-0.669-0.278-0.877c-0.186-0.207-0.475-0.312-0.869-0.312H128.838z"/>
	<path fill="#444444" d="M139.6,269.574c0,0.869-0.272,1.59-0.818,2.16c-0.545,0.572-1.252,0.857-2.122,0.857
		c-0.853,0-1.545-0.285-2.078-0.857c-0.532-0.57-0.798-1.291-0.798-2.16v-1.279c0-0.865,0.266-1.586,0.798-2.158
		s1.223-0.859,2.073-0.859c0.869,0,1.577,0.287,2.124,0.859s0.82,1.293,0.82,2.158V269.574z M138.418,268.285
		c0-0.592-0.159-1.079-0.476-1.46s-0.746-0.571-1.287-0.571c-0.521,0-0.933,0.19-1.235,0.571s-0.454,0.868-0.454,1.46v1.289
		c0,0.6,0.151,1.09,0.454,1.473c0.303,0.382,0.716,0.573,1.24,0.573c0.543,0,0.973-0.19,1.287-0.571s0.471-0.873,0.471-1.475
		V268.285z"/>
	<path fill="#444444" d="M145.601,266.332h-2.148v6.157h-1.188v-6.157h-2.148v-0.952h5.484V266.332z"/>
	<path fill="#444444" d="M151.47,266.332h-2.148v6.157h-1.187v-6.157h-2.148v-0.952h5.483V266.332z"/>
	<path fill="#444444" d="M157.793,269.574c0,0.869-0.272,1.59-0.818,2.16c-0.545,0.572-1.252,0.857-2.121,0.857
		c-0.853,0-1.545-0.285-2.078-0.857c-0.531-0.57-0.798-1.291-0.798-2.16v-1.279c0-0.865,0.267-1.586,0.798-2.158
		c0.533-0.572,1.224-0.859,2.073-0.859c0.869,0,1.577,0.287,2.124,0.859s0.82,1.293,0.82,2.158V269.574z M156.611,268.285
		c0-0.592-0.158-1.079-0.477-1.46c-0.316-0.381-0.746-0.571-1.286-0.571c-0.521,0-0.933,0.19-1.235,0.571s-0.454,0.868-0.454,1.46
		v1.289c0,0.6,0.151,1.09,0.454,1.473c0.303,0.382,0.716,0.573,1.24,0.573c0.544,0,0.973-0.19,1.287-0.571
		c0.313-0.381,0.471-0.873,0.471-1.475V268.285z"/>
	<path fill="#444444" d="M160.615,265.38l2.046,5.469h0.029l2.051-5.469h1.538v7.109h-1.187v-2.422l0.117-3.081l-0.029-0.005
		l-2.109,5.508h-0.796l-2.1-5.493l-0.029,0.005l0.117,3.066v2.422h-1.187v-7.109H160.615z"/>
</g>
<g>
	<path fill="#444444" d="M108.552,298.996v-7.109h2.363c0.788,0,1.403,0.162,1.846,0.486c0.443,0.323,0.664,0.808,0.664,1.452
		c0,0.322-0.093,0.61-0.278,0.864s-0.443,0.443-0.771,0.566c0.423,0.094,0.749,0.298,0.977,0.61s0.342,0.675,0.342,1.089
		c0,0.668-0.218,1.174-0.654,1.521c-0.436,0.346-1.039,0.52-1.807,0.52H108.552z M109.739,294.88h1.309
		c0.368,0,0.658-0.087,0.872-0.261c0.213-0.175,0.32-0.422,0.32-0.74c0-0.352-0.112-0.613-0.337-0.783
		c-0.225-0.172-0.553-0.257-0.986-0.257h-1.177V294.88z M109.739,295.764v2.28h1.494c0.41,0,0.726-0.093,0.947-0.28
		c0.221-0.187,0.332-0.457,0.332-0.811c0-0.377-0.093-0.67-0.278-0.877c-0.186-0.209-0.475-0.313-0.869-0.313H109.739z"/>
	<path fill="#444444" d="M120.501,296.081c0,0.869-0.272,1.589-0.818,2.161c-0.545,0.57-1.252,0.856-2.122,0.856
		c-0.853,0-1.545-0.286-2.078-0.856c-0.532-0.572-0.798-1.292-0.798-2.161v-1.279c0-0.866,0.266-1.585,0.798-2.158
		s1.223-0.859,2.073-0.859c0.869,0,1.577,0.286,2.124,0.859s0.82,1.292,0.82,2.158V296.081z M119.319,294.792
		c0-0.593-0.159-1.079-0.476-1.46s-0.746-0.571-1.287-0.571c-0.521,0-0.933,0.19-1.235,0.571s-0.454,0.867-0.454,1.46v1.289
		c0,0.599,0.151,1.09,0.454,1.472c0.303,0.383,0.716,0.574,1.24,0.574c0.543,0,0.973-0.19,1.287-0.571s0.471-0.872,0.471-1.475
		V294.792z"/>
	<path fill="#444444" d="M126.502,292.839h-2.148v6.157h-1.187v-6.157h-2.148v-0.952h5.483V292.839z"/>
	<path fill="#444444" d="M132.371,292.839h-2.148v6.157h-1.187v-6.157h-2.148v-0.952h5.483V292.839z"/>
	<path fill="#444444" d="M138.694,296.081c0,0.869-0.272,1.589-0.818,2.161c-0.545,0.57-1.252,0.856-2.122,0.856
		c-0.853,0-1.545-0.286-2.078-0.856c-0.532-0.572-0.798-1.292-0.798-2.161v-1.279c0-0.866,0.266-1.585,0.798-2.158
		s1.223-0.859,2.073-0.859c0.869,0,1.577,0.286,2.124,0.859s0.82,1.292,0.82,2.158V296.081z M137.512,294.792
		c0-0.593-0.159-1.079-0.476-1.46s-0.746-0.571-1.287-0.571c-0.521,0-0.933,0.19-1.235,0.571s-0.454,0.867-0.454,1.46v1.289
		c0,0.599,0.151,1.09,0.454,1.472c0.303,0.383,0.716,0.574,1.24,0.574c0.543,0,0.973-0.19,1.287-0.571s0.471-0.872,0.471-1.475
		V294.792z"/>
	<path fill="#444444" d="M141.516,291.887l2.046,5.469h0.029l2.051-5.469h1.538v7.109h-1.187v-2.422l0.117-3.081l-0.029-0.005
		l-2.109,5.508h-0.796l-2.1-5.493l-0.029,0.005l0.117,3.066v2.422h-1.187v-7.109H141.516z"/>
	<path fill="#444444" d="M150.872,296.447h-2.563v-0.952h2.563V296.447z"/>
	<path fill="#444444" d="M155.872,297.336h-2.783l-0.566,1.66h-1.201l2.612-7.109h1.123l2.583,7.109h-1.206L155.872,297.336z
		 M153.43,296.345h2.104l-1.03-3.037h-0.029L153.43,296.345z"/>
</g>
<g>
	<path fill="#444444" d="M108.572,325.996v-7.109h2.363c0.788,0,1.403,0.162,1.846,0.486c0.443,0.323,0.664,0.808,0.664,1.452
		c0,0.322-0.093,0.61-0.278,0.864s-0.443,0.443-0.771,0.566c0.423,0.094,0.749,0.298,0.977,0.61s0.342,0.675,0.342,1.089
		c0,0.668-0.218,1.174-0.654,1.521c-0.436,0.346-1.039,0.52-1.807,0.52H108.572z M109.759,321.88h1.309
		c0.368,0,0.658-0.087,0.872-0.261c0.213-0.175,0.32-0.422,0.32-0.74c0-0.352-0.112-0.613-0.337-0.783
		c-0.225-0.172-0.553-0.257-0.986-0.257h-1.177V321.88z M109.759,322.764v2.28h1.494c0.41,0,0.726-0.093,0.947-0.28
		c0.221-0.187,0.332-0.457,0.332-0.811c0-0.377-0.093-0.67-0.278-0.877c-0.186-0.209-0.475-0.313-0.869-0.313H109.759z"/>
	<path fill="#444444" d="M120.52,323.081c0,0.869-0.272,1.589-0.818,2.161c-0.545,0.57-1.252,0.856-2.122,0.856
		c-0.853,0-1.545-0.286-2.078-0.856c-0.532-0.572-0.798-1.292-0.798-2.161v-1.279c0-0.866,0.266-1.585,0.798-2.158
		s1.223-0.859,2.073-0.859c0.869,0,1.577,0.286,2.124,0.859s0.82,1.292,0.82,2.158V323.081z M119.339,321.792
		c0-0.593-0.159-1.079-0.476-1.46s-0.746-0.571-1.287-0.571c-0.521,0-0.933,0.19-1.235,0.571s-0.454,0.867-0.454,1.46v1.289
		c0,0.599,0.151,1.09,0.454,1.472c0.303,0.383,0.716,0.574,1.24,0.574c0.543,0,0.973-0.19,1.287-0.571s0.471-0.872,0.471-1.475
		V321.792z"/>
	<path fill="#444444" d="M126.521,319.839h-2.148v6.157h-1.187v-6.157h-2.148v-0.952h5.483V319.839z"/>
	<path fill="#444444" d="M132.39,319.839h-2.148v6.157h-1.187v-6.157h-2.148v-0.952h5.483V319.839z"/>
	<path fill="#444444" d="M138.714,323.081c0,0.869-0.272,1.589-0.818,2.161c-0.545,0.57-1.252,0.856-2.122,0.856
		c-0.853,0-1.545-0.286-2.078-0.856c-0.532-0.572-0.798-1.292-0.798-2.161v-1.279c0-0.866,0.266-1.585,0.798-2.158
		s1.223-0.859,2.073-0.859c0.869,0,1.577,0.286,2.124,0.859s0.82,1.292,0.82,2.158V323.081z M137.532,321.792
		c0-0.593-0.159-1.079-0.476-1.46s-0.746-0.571-1.287-0.571c-0.521,0-0.933,0.19-1.235,0.571s-0.454,0.867-0.454,1.46v1.289
		c0,0.599,0.151,1.09,0.454,1.472c0.303,0.383,0.716,0.574,1.24,0.574c0.543,0,0.973-0.19,1.287-0.571s0.471-0.872,0.471-1.475
		V321.792z"/>
	<path fill="#444444" d="M141.536,318.887l2.046,5.469h0.029l2.051-5.469h1.538v7.109h-1.187v-2.422l0.117-3.081l-0.029-0.005
		l-2.109,5.508h-0.796l-2.1-5.493l-0.029,0.005l0.117,3.066v2.422h-1.187v-7.109H141.536z"/>
	<path fill="#444444" d="M150.891,323.447h-2.563v-0.952h2.563V323.447z"/>
	<path fill="#444444" d="M152.039,325.996v-7.109h2.363c0.788,0,1.403,0.162,1.846,0.486c0.442,0.323,0.664,0.808,0.664,1.452
		c0,0.322-0.093,0.61-0.278,0.864s-0.442,0.443-0.771,0.566c0.423,0.094,0.749,0.298,0.977,0.61s0.342,0.675,0.342,1.089
		c0,0.668-0.218,1.174-0.654,1.521c-0.437,0.346-1.038,0.52-1.807,0.52H152.039z M153.225,321.88h1.309
		c0.368,0,0.658-0.087,0.871-0.261c0.214-0.175,0.32-0.422,0.32-0.74c0-0.352-0.112-0.613-0.337-0.783
		c-0.225-0.172-0.554-0.257-0.986-0.257h-1.177V321.88z M153.225,322.764v2.28h1.494c0.41,0,0.726-0.093,0.947-0.28
		c0.222-0.187,0.332-0.457,0.332-0.811c0-0.377-0.093-0.67-0.278-0.877c-0.186-0.209-0.476-0.313-0.869-0.313H153.225z"/>
</g>
<g>
	<path fill="#444444" d="M108.596,352.469v-7.109h2.363c0.788,0,1.403,0.162,1.846,0.486c0.443,0.323,0.664,0.808,0.664,1.452
		c0,0.322-0.093,0.61-0.278,0.864s-0.443,0.443-0.771,0.566c0.423,0.094,0.749,0.298,0.977,0.61s0.342,0.675,0.342,1.089
		c0,0.668-0.218,1.174-0.654,1.521c-0.436,0.346-1.039,0.52-1.807,0.52H108.596z M109.783,348.353h1.309
		c0.368,0,0.658-0.087,0.872-0.261c0.213-0.175,0.32-0.422,0.32-0.74c0-0.352-0.112-0.613-0.337-0.783
		c-0.225-0.172-0.553-0.257-0.986-0.257h-1.177V348.353z M109.783,349.236v2.28h1.494c0.41,0,0.726-0.093,0.947-0.28
		c0.221-0.187,0.332-0.457,0.332-0.811c0-0.377-0.093-0.67-0.278-0.877c-0.186-0.209-0.475-0.313-0.869-0.313H109.783z"/>
	<path fill="#444444" d="M120.545,349.554c0,0.869-0.272,1.589-0.818,2.161c-0.545,0.57-1.252,0.856-2.122,0.856
		c-0.853,0-1.545-0.286-2.078-0.856c-0.532-0.572-0.798-1.292-0.798-2.161v-1.279c0-0.866,0.266-1.585,0.798-2.158
		s1.223-0.859,2.073-0.859c0.869,0,1.577,0.286,2.124,0.859s0.82,1.292,0.82,2.158V349.554z M119.363,348.265
		c0-0.593-0.159-1.079-0.476-1.46s-0.746-0.571-1.287-0.571c-0.521,0-0.933,0.19-1.235,0.571s-0.454,0.867-0.454,1.46v1.289
		c0,0.599,0.151,1.09,0.454,1.472c0.303,0.383,0.716,0.574,1.24,0.574c0.543,0,0.973-0.19,1.287-0.571s0.471-0.872,0.471-1.475
		V348.265z"/>
	<path fill="#444444" d="M126.546,346.312h-2.148v6.157h-1.187v-6.157h-2.148v-0.952h5.483V346.312z"/>
	<path fill="#444444" d="M132.415,346.312h-2.148v6.157h-1.187v-6.157h-2.148v-0.952h5.483V346.312z"/>
	<path fill="#444444" d="M138.738,349.554c0,0.869-0.272,1.589-0.818,2.161c-0.545,0.57-1.252,0.856-2.122,0.856
		c-0.853,0-1.545-0.286-2.078-0.856c-0.532-0.572-0.798-1.292-0.798-2.161v-1.279c0-0.866,0.266-1.585,0.798-2.158
		s1.223-0.859,2.073-0.859c0.869,0,1.577,0.286,2.124,0.859s0.82,1.292,0.82,2.158V349.554z M137.556,348.265
		c0-0.593-0.159-1.079-0.476-1.46s-0.746-0.571-1.287-0.571c-0.521,0-0.933,0.19-1.235,0.571s-0.454,0.867-0.454,1.46v1.289
		c0,0.599,0.151,1.09,0.454,1.472c0.303,0.383,0.716,0.574,1.24,0.574c0.543,0,0.973-0.19,1.287-0.571s0.471-0.872,0.471-1.475
		V348.265z"/>
	<path fill="#444444" d="M141.56,345.359l2.046,5.469h0.029l2.051-5.469h1.538v7.109h-1.187v-2.422l0.117-3.081l-0.029-0.005
		l-2.109,5.508h-0.796l-2.1-5.493l-0.029,0.005l0.117,3.066v2.422h-1.187v-7.109H141.56z"/>
	<path fill="#444444" d="M150.916,349.92h-2.563v-0.952h2.563V349.92z"/>
	<path fill="#444444" d="M157.249,350.11l0.01,0.029c0.013,0.72-0.221,1.305-0.7,1.755c-0.48,0.451-1.131,0.677-1.951,0.677
		c-0.83,0-1.505-0.279-2.023-0.837c-0.52-0.559-0.779-1.272-0.779-2.142v-1.353c0-0.865,0.256-1.58,0.77-2.141
		c0.512-0.563,1.179-0.843,1.999-0.843c0.84,0,1.501,0.221,1.985,0.661c0.482,0.441,0.718,1.035,0.705,1.78l-0.01,0.029h-1.147
		c0-0.479-0.13-0.851-0.388-1.118c-0.26-0.268-0.641-0.4-1.146-0.4c-0.485,0-0.87,0.191-1.155,0.576
		c-0.284,0.383-0.427,0.865-0.427,1.443v1.361c0,0.586,0.146,1.07,0.437,1.453c0.292,0.385,0.685,0.576,1.18,0.576
		c0.491,0,0.864-0.131,1.118-0.395c0.254-0.263,0.381-0.635,0.381-1.114H157.249z"/>
</g>
<g>
	<path fill="#444444" d="M107.949,377.142h-3.115v3.032h-1.187v-7.109h4.8v0.952h-3.613v2.173h3.115V377.142z"/>
	<path fill="#444444" d="M114.99,377.259c0,0.869-0.272,1.589-0.818,2.161c-0.545,0.57-1.252,0.856-2.122,0.856
		c-0.853,0-1.545-0.286-2.078-0.856c-0.532-0.572-0.798-1.292-0.798-2.161v-1.279c0-0.866,0.266-1.585,0.798-2.158
		s1.223-0.859,2.073-0.859c0.869,0,1.577,0.286,2.124,0.859s0.82,1.292,0.82,2.158V377.259z M113.808,375.97
		c0-0.593-0.159-1.079-0.476-1.46s-0.746-0.571-1.287-0.571c-0.521,0-0.933,0.19-1.235,0.571s-0.454,0.867-0.454,1.46v1.289
		c0,0.599,0.151,1.09,0.454,1.472c0.303,0.383,0.716,0.574,1.24,0.574c0.543,0,0.973-0.19,1.287-0.571s0.471-0.872,0.471-1.475
		V375.97z"/>
	<path fill="#444444" d="M121.816,377.259c0,0.869-0.272,1.589-0.818,2.161c-0.545,0.57-1.252,0.856-2.122,0.856
		c-0.853,0-1.545-0.286-2.078-0.856c-0.532-0.572-0.798-1.292-0.798-2.161v-1.279c0-0.866,0.266-1.585,0.798-2.158
		s1.223-0.859,2.073-0.859c0.869,0,1.577,0.286,2.124,0.859s0.82,1.292,0.82,2.158V377.259z M120.635,375.97
		c0-0.593-0.159-1.079-0.476-1.46s-0.746-0.571-1.287-0.571c-0.521,0-0.933,0.19-1.235,0.571s-0.454,0.867-0.454,1.46v1.289
		c0,0.599,0.151,1.09,0.454,1.472c0.303,0.383,0.716,0.574,1.24,0.574c0.543,0,0.973-0.19,1.287-0.571s0.471-0.872,0.471-1.475
		V375.97z"/>
	<path fill="#444444" d="M127.817,374.017h-2.148v6.157h-1.187v-6.157h-2.148v-0.952h5.483V374.017z"/>
	<path fill="#444444" d="M133.042,376.976h-3.11v2.246h3.608v0.952h-4.795v-7.109h4.761v0.952h-3.574v2.007h3.11V376.976z"/>
	<path fill="#444444" d="M135.727,377.225v2.949h-1.187v-7.109h2.627c0.794,0,1.408,0.18,1.841,0.537s0.649,0.869,0.649,1.533
		c0,0.367-0.095,0.685-0.286,0.949c-0.19,0.266-0.468,0.479-0.833,0.638c0.4,0.127,0.688,0.335,0.864,0.622
		c0.176,0.289,0.264,0.643,0.264,1.063v0.591c0,0.208,0.026,0.411,0.078,0.61s0.14,0.35,0.264,0.454v0.112h-1.221
		c-0.13-0.107-0.214-0.277-0.251-0.508s-0.056-0.457-0.056-0.679v-0.571c0-0.365-0.104-0.654-0.313-0.869s-0.495-0.322-0.859-0.322
		H135.727z M135.727,376.272h1.377c0.475,0,0.822-0.091,1.04-0.273s0.327-0.46,0.327-0.835c0-0.357-0.107-0.639-0.322-0.842
		c-0.215-0.204-0.542-0.306-0.981-0.306h-1.44V376.272z"/>
	<path fill="#444444" d="M143.296,377.625h-2.564v-0.952h2.564V377.625z"/>
	<path fill="#444444" d="M149.302,374.017h-2.148v6.157h-1.187v-6.157h-2.148v-0.952h5.483V374.017z"/>
	<path fill="#444444" d="M155.624,377.259c0,0.869-0.272,1.589-0.818,2.161c-0.545,0.57-1.252,0.856-2.121,0.856
		c-0.853,0-1.545-0.286-2.078-0.856c-0.531-0.572-0.798-1.292-0.798-2.161v-1.279c0-0.866,0.267-1.585,0.798-2.158
		c0.533-0.573,1.224-0.859,2.073-0.859c0.869,0,1.577,0.286,2.124,0.859s0.82,1.292,0.82,2.158V377.259z M154.443,375.97
		c0-0.593-0.158-1.079-0.477-1.46c-0.316-0.381-0.746-0.571-1.286-0.571c-0.521,0-0.933,0.19-1.235,0.571s-0.454,0.867-0.454,1.46
		v1.289c0,0.599,0.151,1.09,0.454,1.472c0.303,0.383,0.716,0.574,1.24,0.574c0.544,0,0.973-0.19,1.287-0.571
		c0.313-0.381,0.471-0.872,0.471-1.475V375.97z"/>
	<path fill="#444444" d="M158.095,377.479v2.695h-1.187v-7.109h2.778c0.784,0,1.398,0.203,1.844,0.607
		c0.443,0.406,0.666,0.939,0.666,1.6c0,0.668-0.223,1.202-0.666,1.604c-0.445,0.402-1.06,0.604-1.844,0.604H158.095z
		 M158.095,376.526h1.592c0.439,0,0.77-0.117,0.991-0.352s0.332-0.532,0.332-0.894s-0.11-0.662-0.332-0.903
		s-0.552-0.361-0.991-0.361h-1.592V376.526z"/>
</g>
<g>
	<path fill="#444444" d="M119.052,400.988h-3.115v3.032h-1.187v-7.109h4.8v0.952h-3.613v2.173h3.115V400.988z"/>
	<path fill="#444444" d="M126.094,401.105c0,0.869-0.272,1.59-0.818,2.16c-0.545,0.572-1.252,0.857-2.122,0.857
		c-0.853,0-1.545-0.285-2.078-0.857c-0.532-0.57-0.798-1.291-0.798-2.16v-1.279c0-0.865,0.266-1.586,0.798-2.158
		s1.223-0.859,2.073-0.859c0.869,0,1.577,0.287,2.124,0.859s0.82,1.293,0.82,2.158V401.105z M124.912,399.816
		c0-0.592-0.159-1.079-0.476-1.46s-0.746-0.571-1.287-0.571c-0.521,0-0.933,0.19-1.235,0.571s-0.454,0.868-0.454,1.46v1.289
		c0,0.6,0.151,1.09,0.454,1.473c0.303,0.382,0.716,0.573,1.24,0.573c0.543,0,0.973-0.19,1.287-0.571s0.471-0.873,0.471-1.475
		V399.816z"/>
	<path fill="#444444" d="M132.92,401.105c0,0.869-0.272,1.59-0.818,2.16c-0.545,0.572-1.252,0.857-2.122,0.857
		c-0.853,0-1.545-0.285-2.078-0.857c-0.532-0.57-0.798-1.291-0.798-2.16v-1.279c0-0.865,0.266-1.586,0.798-2.158
		s1.223-0.859,2.073-0.859c0.869,0,1.577,0.287,2.124,0.859s0.82,1.293,0.82,2.158V401.105z M131.738,399.816
		c0-0.592-0.159-1.079-0.476-1.46s-0.746-0.571-1.287-0.571c-0.521,0-0.933,0.19-1.235,0.571s-0.454,0.868-0.454,1.46v1.289
		c0,0.6,0.151,1.09,0.454,1.473c0.303,0.382,0.716,0.573,1.24,0.573c0.543,0,0.973-0.19,1.287-0.571s0.471-0.873,0.471-1.475
		V399.816z"/>
	<path fill="#444444" d="M138.921,397.863h-2.148v6.157h-1.187v-6.157h-2.148v-0.952h5.483V397.863z"/>
	<path fill="#444444" d="M144.146,400.822h-3.111v2.246h3.609v0.952h-4.795v-7.109h4.76v0.952h-3.574v2.007h3.111V400.822z"/>
	<path fill="#444444" d="M146.831,401.071v2.949h-1.187v-7.109h2.627c0.794,0,1.408,0.179,1.841,0.537s0.649,0.869,0.649,1.533
		c0,0.368-0.095,0.685-0.286,0.95c-0.189,0.265-0.468,0.477-0.832,0.637c0.4,0.127,0.688,0.334,0.864,0.623
		c0.176,0.287,0.264,0.642,0.264,1.062v0.591c0,0.209,0.026,0.412,0.078,0.61s0.14,0.351,0.264,0.454v0.112h-1.221
		c-0.13-0.107-0.214-0.276-0.251-0.508c-0.038-0.231-0.057-0.458-0.057-0.679v-0.571c0-0.364-0.104-0.654-0.313-0.869
		s-0.495-0.322-0.859-0.322H146.831z M146.831,400.119h1.377c0.476,0,0.822-0.092,1.04-0.273s0.327-0.461,0.327-0.835
		c0-0.358-0.107-0.639-0.322-0.843c-0.215-0.203-0.542-0.305-0.981-0.305h-1.44V400.119z"/>
</g>
<g>
	<path fill="#444444" d="M14.78,255.576c-0.295,0-0.537,0.11-0.725,0.33s-0.356,0.607-0.505,1.164
		c-0.208,0.795-0.484,1.406-0.828,1.834s-0.793,0.643-1.35,0.643c-0.573,0-1.045-0.237-1.416-0.711s-0.557-1.085-0.557-1.834
		c0-0.781,0.211-1.408,0.632-1.882s0.927-0.702,1.516-0.687l0.029,0.01v1.139c-0.365,0-0.66,0.123-0.886,0.371
		c-0.226,0.247-0.339,0.6-0.339,1.059c0,0.434,0.094,0.766,0.283,0.999s0.432,0.349,0.73,0.349c0.27,0,0.494-0.125,0.672-0.378
		c0.179-0.253,0.348-0.67,0.507-1.253c0.205-0.765,0.488-1.346,0.85-1.742c0.361-0.397,0.822-0.596,1.382-0.596
		c0.592,0,1.063,0.236,1.414,0.71s0.525,1.097,0.525,1.868c0,0.742-0.198,1.393-0.593,1.953c-0.396,0.56-0.935,0.831-1.619,0.814
		l-0.029-0.01v-1.143c0.433,0,0.756-0.149,0.969-0.449c0.213-0.299,0.32-0.688,0.32-1.166c0-0.439-0.088-0.781-0.265-1.025
		C15.32,255.699,15.081,255.576,14.78,255.576z"/>
	<path fill="#444444" d="M16.611,251.885v1.188H9.502v-1.188H16.611z"/>
	<path fill="#444444" d="M16.611,250.264H9.502v-2.305c0-0.901,0.282-1.635,0.845-2.199s1.288-0.848,2.173-0.848h1.079
		c0.889,0,1.613,0.283,2.173,0.848s0.84,1.298,0.84,2.199V250.264z M10.454,249.078h5.205v-1.084c0-0.59-0.192-1.053-0.576-1.39
		s-0.879-0.505-1.488-0.505h-1.088c-0.602,0-1.094,0.168-1.478,0.505s-0.576,0.8-0.576,1.39V249.078z"/>
	<path fill="#444444" d="M13.413,239.395v3.111h2.246v-3.609h0.952v4.795H9.502v-4.76h0.952v3.574h2.007v-3.111H13.413z"/>
	<path fill="#444444" d="M16.611,237.896H9.502v-2.363c0-0.788,0.162-1.403,0.486-1.846c0.324-0.443,0.808-0.664,1.453-0.664
		c0.322,0,0.61,0.092,0.864,0.277s0.443,0.443,0.566,0.771c0.094-0.423,0.298-0.748,0.61-0.977c0.313-0.228,0.675-0.342,1.089-0.342
		c0.667,0,1.174,0.219,1.521,0.654c0.347,0.437,0.52,1.039,0.52,1.807V237.896z M12.495,236.709V235.4
		c0-0.367-0.087-0.658-0.261-0.871s-0.421-0.32-0.74-0.32c-0.352,0-0.613,0.113-0.784,0.338s-0.256,0.553-0.256,0.986v1.176H12.495z
		 M13.379,236.709h2.28v-1.494c0-0.41-0.093-0.726-0.28-0.947c-0.187-0.221-0.457-0.332-0.811-0.332
		c-0.377,0-0.669,0.094-0.877,0.279c-0.208,0.186-0.312,0.475-0.312,0.869V236.709z"/>
	<path fill="#444444" d="M14.951,227.637v2.783l1.66,0.566v1.201l-7.109-2.611v-1.123l7.109-2.584v1.207L14.951,227.637z
		 M13.96,230.078v-2.104l-3.037,1.029v0.029L13.96,230.078z"/>
	<path fill="#444444" d="M13.662,223.858h2.949v1.187H9.502v-2.627c0-0.794,0.179-1.408,0.537-1.841s0.869-0.649,1.533-0.649
		c0.368,0,0.685,0.095,0.95,0.286c0.265,0.189,0.478,0.468,0.637,0.832c0.127-0.4,0.334-0.688,0.623-0.864s0.642-0.264,1.062-0.264
		h0.591c0.208,0,0.412-0.026,0.61-0.078s0.35-0.14,0.454-0.264h0.112v1.221c-0.107,0.13-0.277,0.214-0.508,0.251
		c-0.231,0.038-0.458,0.057-0.679,0.057h-0.571c-0.365,0-0.654,0.104-0.869,0.313s-0.322,0.495-0.322,0.859V223.858z M12.71,223.858
		v-1.377c0-0.476-0.091-0.822-0.273-1.04s-0.46-0.327-0.835-0.327c-0.358,0-0.639,0.107-0.842,0.322s-0.305,0.542-0.305,0.981v1.44
		H12.71z"/>
	<path fill="#444444" d="M14.062,216.29v2.563H13.11v-2.563H14.062z"/>
	<path fill="#444444" d="M14.951,211.29v2.783l1.66,0.566v1.201l-7.109-2.612v-1.123l7.109-2.583v1.206L14.951,211.29z
		 M13.96,213.731v-2.104l-3.037,1.03v0.029L13.96,213.731z"/>
</g>
<g>
	<path fill="#444444" d="M45.853,255.43c-0.295,0-0.537,0.11-0.725,0.33s-0.356,0.607-0.505,1.164
		c-0.208,0.795-0.484,1.406-0.828,1.834s-0.793,0.643-1.35,0.643c-0.573,0-1.045-0.237-1.416-0.711s-0.557-1.085-0.557-1.834
		c0-0.781,0.211-1.408,0.632-1.882s0.927-0.702,1.516-0.687l0.029,0.01v1.139c-0.365,0-0.66,0.123-0.886,0.371
		c-0.226,0.247-0.339,0.6-0.339,1.059c0,0.434,0.094,0.766,0.283,0.999s0.432,0.349,0.73,0.349c0.27,0,0.494-0.125,0.672-0.378
		c0.179-0.253,0.348-0.67,0.507-1.253c0.205-0.765,0.488-1.346,0.85-1.742c0.361-0.397,0.822-0.596,1.382-0.596
		c0.592,0,1.063,0.236,1.414,0.71s0.525,1.097,0.525,1.868c0,0.742-0.198,1.393-0.593,1.953c-0.396,0.56-0.935,0.831-1.619,0.814
		l-0.029-0.01v-1.143c0.433,0,0.756-0.149,0.969-0.449c0.213-0.299,0.32-0.688,0.32-1.166c0-0.439-0.088-0.781-0.265-1.025
		C46.393,255.553,46.154,255.43,45.853,255.43z"/>
	<path fill="#444444" d="M47.684,251.738v1.188h-7.109v-1.188H47.684z"/>
	<path fill="#444444" d="M47.684,250.117h-7.109v-2.305c0-0.901,0.282-1.635,0.845-2.199s1.288-0.848,2.173-0.848h1.079
		c0.889,0,1.613,0.283,2.173,0.848s0.84,1.298,0.84,2.199V250.117z M41.527,248.932h5.205v-1.084c0-0.59-0.192-1.053-0.576-1.39
		s-0.879-0.505-1.488-0.505h-1.088c-0.602,0-1.094,0.168-1.478,0.505s-0.576,0.8-0.576,1.39V248.932z"/>
	<path fill="#444444" d="M44.486,239.248v3.111h2.246v-3.609h0.952v4.795h-7.109v-4.76h0.952v3.574h2.007v-3.111H44.486z"/>
	<path fill="#444444" d="M47.684,237.75h-7.109v-2.363c0-0.788,0.162-1.403,0.486-1.846c0.324-0.443,0.808-0.664,1.453-0.664
		c0.322,0,0.61,0.092,0.864,0.277s0.443,0.443,0.566,0.771c0.094-0.423,0.298-0.748,0.61-0.977c0.313-0.228,0.675-0.342,1.089-0.342
		c0.667,0,1.174,0.219,1.521,0.654c0.347,0.437,0.52,1.039,0.52,1.807V237.75z M43.568,236.563v-1.309
		c0-0.367-0.087-0.658-0.261-0.871s-0.421-0.32-0.74-0.32c-0.352,0-0.613,0.113-0.784,0.338s-0.256,0.553-0.256,0.986v1.176H43.568z
		 M44.452,236.563h2.28v-1.494c0-0.41-0.093-0.726-0.28-0.947c-0.187-0.221-0.457-0.332-0.811-0.332
		c-0.377,0-0.669,0.094-0.877,0.279c-0.208,0.186-0.312,0.475-0.312,0.869V236.563z"/>
	<path fill="#444444" d="M46.024,227.49v2.783l1.66,0.566v1.201l-7.109-2.611v-1.123l7.109-2.584v1.207L46.024,227.49z
		 M45.033,229.932v-2.104l-3.037,1.029v0.029L45.033,229.932z"/>
	<path fill="#444444" d="M44.735,223.712h2.949v1.187h-7.109v-2.627c0-0.794,0.179-1.408,0.537-1.841s0.869-0.649,1.533-0.649
		c0.368,0,0.685,0.095,0.95,0.286c0.265,0.189,0.478,0.468,0.637,0.832c0.127-0.4,0.334-0.688,0.623-0.864s0.642-0.264,1.062-0.264
		h0.591c0.208,0,0.412-0.026,0.61-0.078s0.35-0.14,0.454-0.264h0.112v1.221c-0.107,0.13-0.277,0.214-0.508,0.251
		c-0.231,0.038-0.458,0.057-0.679,0.057h-0.571c-0.365,0-0.654,0.104-0.869,0.313s-0.322,0.495-0.322,0.859V223.712z
		 M43.783,223.712v-1.377c0-0.476-0.091-0.822-0.273-1.04s-0.46-0.327-0.835-0.327c-0.358,0-0.639,0.107-0.842,0.322
		s-0.305,0.542-0.305,0.981v1.44H43.783z"/>
	<path fill="#444444" d="M45.135,216.144v2.563h-0.952v-2.563H45.135z"/>
	<path fill="#444444" d="M47.684,214.996h-7.109v-2.363c0-0.788,0.162-1.403,0.486-1.846s0.808-0.664,1.453-0.664
		c0.322,0,0.61,0.093,0.864,0.278s0.443,0.442,0.566,0.771c0.094-0.423,0.298-0.749,0.61-0.977s0.675-0.342,1.089-0.342
		c0.667,0,1.174,0.218,1.521,0.654s0.52,1.038,0.52,1.807V214.996z M43.568,213.81v-1.309c0-0.368-0.087-0.658-0.261-0.871
		c-0.174-0.214-0.421-0.32-0.74-0.32c-0.352,0-0.613,0.112-0.784,0.337s-0.256,0.554-0.256,0.986v1.177H43.568z M44.452,213.81h2.28
		v-1.494c0-0.41-0.093-0.726-0.28-0.947c-0.187-0.222-0.457-0.332-0.811-0.332c-0.377,0-0.669,0.093-0.877,0.278
		c-0.208,0.186-0.312,0.476-0.312,0.869V213.81z"/>
</g>
<g>
	<path fill="#444444" d="M219.26,250.283c-0.295,0-0.537,0.11-0.725,0.33s-0.356,0.607-0.505,1.164
		c-0.208,0.795-0.484,1.406-0.828,1.834s-0.793,0.643-1.35,0.643c-0.573,0-1.045-0.237-1.416-0.711s-0.557-1.085-0.557-1.834
		c0-0.781,0.211-1.408,0.632-1.882s0.927-0.702,1.516-0.687l0.029,0.01v1.139c-0.365,0-0.66,0.123-0.886,0.371
		c-0.226,0.247-0.339,0.6-0.339,1.059c0,0.434,0.094,0.766,0.283,0.999s0.432,0.349,0.73,0.349c0.27,0,0.494-0.125,0.672-0.378
		c0.179-0.253,0.348-0.67,0.507-1.253c0.205-0.765,0.488-1.346,0.85-1.742c0.361-0.397,0.822-0.596,1.382-0.596
		c0.592,0,1.063,0.236,1.414,0.71s0.525,1.097,0.525,1.868c0,0.742-0.198,1.393-0.593,1.953c-0.396,0.56-0.935,0.831-1.619,0.814
		l-0.029-0.01v-1.143c0.433,0,0.756-0.149,0.969-0.449c0.213-0.299,0.32-0.688,0.32-1.166c0-0.439-0.088-0.781-0.265-1.025
		C219.8,250.406,219.561,250.283,219.26,250.283z"/>
	<path fill="#444444" d="M221.091,246.592v1.188h-7.109v-1.188H221.091z"/>
	<path fill="#444444" d="M221.091,244.971h-7.109v-2.305c0-0.901,0.282-1.635,0.845-2.199s1.288-0.848,2.173-0.848h1.079
		c0.889,0,1.613,0.283,2.173,0.848s0.84,1.298,0.84,2.199V244.971z M214.934,243.785h5.205v-1.084c0-0.59-0.192-1.053-0.576-1.39
		s-0.879-0.505-1.488-0.505h-1.088c-0.602,0-1.094,0.168-1.478,0.505s-0.576,0.8-0.576,1.39V243.785z"/>
	<path fill="#444444" d="M217.893,234.102v3.111h2.246v-3.609h0.952v4.795h-7.109v-4.76h0.952v3.574h2.007v-3.111H217.893z"/>
	<path fill="#444444" d="M221.091,232.604h-7.109v-2.363c0-0.788,0.162-1.403,0.486-1.846c0.324-0.443,0.808-0.664,1.453-0.664
		c0.322,0,0.61,0.092,0.864,0.277s0.443,0.443,0.566,0.771c0.094-0.423,0.298-0.748,0.61-0.977c0.313-0.228,0.675-0.342,1.089-0.342
		c0.667,0,1.174,0.219,1.521,0.654c0.347,0.437,0.52,1.039,0.52,1.807V232.604z M216.975,231.416v-1.309
		c0-0.367-0.087-0.658-0.261-0.871s-0.421-0.32-0.74-0.32c-0.352,0-0.613,0.113-0.784,0.338s-0.256,0.553-0.256,0.986v1.176H216.975
		z M217.859,231.416h2.28v-1.494c0-0.41-0.093-0.726-0.28-0.947c-0.187-0.221-0.457-0.332-0.811-0.332
		c-0.377,0-0.669,0.094-0.877,0.279c-0.208,0.186-0.312,0.475-0.312,0.869V231.416z"/>
	<path fill="#444444" d="M219.431,222.344v2.783l1.66,0.566v1.201l-7.109-2.611v-1.123l7.109-2.584v1.207L219.431,222.344z
		 M218.44,224.785v-2.104l-3.037,1.029v0.029L218.44,224.785z"/>
	<path fill="#444444" d="M218.142,218.565h2.949v1.187h-7.109v-2.627c0-0.794,0.179-1.408,0.537-1.841s0.869-0.649,1.533-0.649
		c0.368,0,0.685,0.095,0.95,0.286c0.265,0.189,0.478,0.468,0.637,0.832c0.127-0.4,0.334-0.688,0.623-0.864s0.642-0.264,1.062-0.264
		h0.591c0.208,0,0.412-0.026,0.61-0.078s0.35-0.14,0.454-0.264h0.112v1.221c-0.107,0.13-0.277,0.214-0.508,0.251
		c-0.231,0.038-0.458,0.057-0.679,0.057h-0.571c-0.365,0-0.654,0.104-0.869,0.313s-0.322,0.495-0.322,0.859V218.565z
		 M217.19,218.565v-1.377c0-0.476-0.091-0.822-0.273-1.04s-0.46-0.327-0.835-0.327c-0.358,0-0.639,0.107-0.842,0.322
		s-0.305,0.542-0.305,0.981v1.44H217.19z"/>
	<path fill="#444444" d="M218.542,210.997v2.563h-0.952v-2.563H218.542z"/>
	<path fill="#444444" d="M219.431,205.997v2.783l1.66,0.566v1.201l-7.109-2.612v-1.123l7.109-2.583v1.206L219.431,205.997z
		 M218.44,208.438v-2.104l-3.037,1.03v0.029L218.44,208.438z"/>
</g>
<g>
	<path fill="#444444" d="M250.333,250.135c-0.295,0-0.537,0.11-0.725,0.33s-0.356,0.607-0.505,1.164
		c-0.208,0.795-0.484,1.406-0.828,1.834s-0.793,0.643-1.35,0.643c-0.573,0-1.045-0.237-1.416-0.711s-0.557-1.085-0.557-1.834
		c0-0.781,0.211-1.408,0.632-1.882s0.927-0.702,1.516-0.687l0.029,0.01v1.139c-0.365,0-0.66,0.123-0.886,0.371
		c-0.226,0.247-0.339,0.6-0.339,1.059c0,0.434,0.094,0.766,0.283,0.999s0.432,0.349,0.73,0.349c0.27,0,0.494-0.125,0.672-0.378
		c0.179-0.253,0.348-0.67,0.507-1.253c0.205-0.765,0.488-1.346,0.85-1.742c0.361-0.397,0.822-0.596,1.382-0.596
		c0.592,0,1.063,0.236,1.414,0.71s0.525,1.097,0.525,1.868c0,0.742-0.198,1.393-0.593,1.953c-0.396,0.56-0.935,0.831-1.619,0.814
		l-0.029-0.01v-1.143c0.433,0,0.756-0.149,0.969-0.449c0.213-0.299,0.32-0.688,0.32-1.166c0-0.439-0.088-0.781-0.265-1.025
		C250.873,250.258,250.634,250.135,250.333,250.135z"/>
	<path fill="#444444" d="M252.164,246.443v1.188h-7.109v-1.188H252.164z"/>
	<path fill="#444444" d="M252.164,244.822h-7.109v-2.305c0-0.901,0.282-1.635,0.845-2.199s1.288-0.848,2.173-0.848h1.079
		c0.889,0,1.613,0.283,2.173,0.848s0.84,1.298,0.84,2.199V244.822z M246.007,243.637h5.205v-1.084c0-0.59-0.192-1.053-0.576-1.39
		s-0.879-0.505-1.488-0.505h-1.088c-0.602,0-1.094,0.168-1.478,0.505s-0.576,0.8-0.576,1.39V243.637z"/>
	<path fill="#444444" d="M248.966,233.953v3.111h2.246v-3.609h0.952v4.795h-7.109v-4.76h0.952v3.574h2.007v-3.111H248.966z"/>
	<path fill="#444444" d="M252.164,232.455h-7.109v-2.363c0-0.788,0.162-1.403,0.486-1.846c0.324-0.443,0.808-0.664,1.453-0.664
		c0.322,0,0.61,0.092,0.864,0.277s0.443,0.443,0.566,0.771c0.094-0.423,0.298-0.748,0.61-0.977c0.313-0.228,0.675-0.342,1.089-0.342
		c0.667,0,1.174,0.219,1.521,0.654c0.347,0.437,0.52,1.039,0.52,1.807V232.455z M248.048,231.268v-1.309
		c0-0.367-0.087-0.658-0.261-0.871s-0.421-0.32-0.74-0.32c-0.352,0-0.613,0.113-0.784,0.338s-0.256,0.553-0.256,0.986v1.176H248.048
		z M248.932,231.268h2.28v-1.494c0-0.41-0.093-0.726-0.28-0.947c-0.187-0.221-0.457-0.332-0.811-0.332
		c-0.377,0-0.669,0.094-0.877,0.279c-0.208,0.186-0.312,0.475-0.312,0.869V231.268z"/>
	<path fill="#444444" d="M250.504,222.195v2.783l1.66,0.566v1.201l-7.109-2.611v-1.123l7.109-2.584v1.207L250.504,222.195z
		 M249.513,224.637v-2.104l-3.037,1.029v0.029L249.513,224.637z"/>
	<path fill="#444444" d="M249.215,218.417h2.949v1.187h-7.109v-2.627c0-0.794,0.179-1.408,0.537-1.841s0.869-0.649,1.533-0.649
		c0.368,0,0.685,0.095,0.95,0.286c0.265,0.189,0.478,0.468,0.637,0.832c0.127-0.4,0.334-0.688,0.623-0.864s0.642-0.264,1.062-0.264
		h0.591c0.208,0,0.412-0.026,0.61-0.078s0.35-0.14,0.454-0.264h0.112v1.221c-0.107,0.13-0.277,0.214-0.508,0.251
		c-0.231,0.038-0.458,0.057-0.679,0.057h-0.571c-0.365,0-0.654,0.104-0.869,0.313s-0.322,0.495-0.322,0.859V218.417z
		 M248.263,218.417v-1.377c0-0.476-0.091-0.822-0.273-1.04s-0.46-0.327-0.835-0.327c-0.358,0-0.639,0.107-0.842,0.322
		s-0.305,0.542-0.305,0.981v1.44H248.263z"/>
	<path fill="#444444" d="M249.615,210.849v2.563h-0.952v-2.563H249.615z"/>
	<path fill="#444444" d="M252.164,209.701h-7.109v-2.363c0-0.788,0.162-1.403,0.486-1.846s0.808-0.664,1.453-0.664
		c0.322,0,0.61,0.093,0.864,0.278s0.443,0.442,0.566,0.771c0.094-0.423,0.298-0.749,0.61-0.977s0.675-0.342,1.089-0.342
		c0.667,0,1.174,0.218,1.521,0.654s0.52,1.038,0.52,1.807V209.701z M248.048,208.515v-1.309c0-0.368-0.087-0.658-0.261-0.871
		c-0.174-0.214-0.421-0.32-0.74-0.32c-0.352,0-0.613,0.112-0.784,0.337s-0.256,0.554-0.256,0.986v1.177H248.048z M248.932,208.515
		h2.28v-1.494c0-0.41-0.093-0.726-0.28-0.947c-0.187-0.222-0.457-0.332-0.811-0.332c-0.377,0-0.669,0.093-0.877,0.278
		c-0.208,0.186-0.312,0.476-0.312,0.869V208.515z"/>
</g>
<g>
	<path fill="#444444" d="M293.712,245.746v0.014l0.007-0.034l1.989-7.28h1.326l2.01,7.301l0.007,0.048l0.007-0.068l1.572-7.28h1.634
		l-2.365,9.953h-1.511l-1.989-7.144h-0.041l-1.996,7.144h-1.518l-2.358-9.953h1.634L293.712,245.746z"/>
	<path fill="#444444" d="M305.442,248.398h-1.661v-9.953h1.661V248.398z"/>
	<path fill="#444444" d="M307.712,248.398v-9.953h3.227c1.263,0,2.289,0.395,3.079,1.183c0.791,0.789,1.187,1.803,1.187,3.042v1.511
		c0,1.244-0.396,2.259-1.187,3.042c-0.79,0.784-1.816,1.176-3.079,1.176H307.712z M309.373,239.778v7.287h1.518
		c0.825,0,1.473-0.269,1.945-0.806c0.471-0.537,0.707-1.231,0.707-2.083v-1.522c0-0.843-0.236-1.532-0.707-2.07
		c-0.473-0.537-1.12-0.806-1.945-0.806H309.373z"/>
	<path fill="#444444" d="M324.33,247.052c-0.265,0.379-0.698,0.722-1.303,1.029c-0.604,0.308-1.379,0.461-2.327,0.461
		c-1.198,0-2.186-0.379-2.96-1.138s-1.162-1.74-1.162-2.943v-2.078c0-1.203,0.365-2.184,1.098-2.942
		c0.73-0.759,1.676-1.139,2.833-1.139c1.171,0,2.081,0.288,2.731,0.865c0.648,0.576,0.98,1.327,0.994,2.252l-0.014,0.041h-1.572
		c-0.036-0.547-0.231-0.987-0.584-1.322c-0.354-0.335-0.865-0.503-1.535-0.503c-0.688,0-1.243,0.258-1.664,0.772
		c-0.422,0.514-0.633,1.167-0.633,1.96v2.09c0,0.801,0.229,1.46,0.688,1.978c0.457,0.517,1.051,0.774,1.78,0.774
		c0.52,0,0.941-0.06,1.265-0.181c0.323-0.12,0.559-0.263,0.704-0.426v-2.019h-1.976v-1.244h3.637V247.052z"/>
	<path fill="#444444" d="M332.383,243.921h-4.354v3.145h5.052v1.333h-6.713v-9.953h6.665v1.333h-5.004v2.81h4.354V243.921z"/>
	<path fill="#444444" d="M341.42,239.778h-3.008v8.62h-1.661v-8.62h-3.008v-1.333h7.677V239.778z"/>
	<path fill="#444444" d="M347.866,247.065h4.573v1.333h-6.234v-9.953h1.661V247.065z"/>
	<path fill="#444444" d="M359.309,246.074h-3.896l-0.793,2.324h-1.682l3.657-9.953h1.572l3.616,9.953h-1.688L359.309,246.074z
		 M355.891,244.687h2.946l-1.442-4.252h-0.041L355.891,244.687z"/>
	<path fill="#444444" d="M366.186,243.285l2.406-4.84h1.853l-3.452,6.46v3.493h-1.654v-3.582l-3.397-6.371h1.853L366.186,243.285z"
		/>
	<path fill="#444444" d="M379.168,244.317c0,1.217-0.382,2.226-1.145,3.025c-0.764,0.8-1.754,1.199-2.971,1.199
		c-1.194,0-2.164-0.399-2.908-1.199c-0.746-0.8-1.118-1.809-1.118-3.025v-1.791c0-1.212,0.372-2.219,1.118-3.021
		c0.744-0.802,1.712-1.203,2.901-1.203c1.217,0,2.208,0.401,2.974,1.203c0.766,0.803,1.148,1.81,1.148,3.021V244.317z
		 M377.513,242.513c0-0.829-0.223-1.511-0.666-2.044c-0.445-0.533-1.045-0.8-1.802-0.8c-0.729,0-1.306,0.267-1.729,0.8
		s-0.636,1.215-0.636,2.044v1.805c0,0.839,0.212,1.525,0.636,2.062c0.424,0.535,1.003,0.803,1.736,0.803
		c0.761,0,1.361-0.267,1.801-0.8c0.44-0.533,0.66-1.221,0.66-2.064V242.513z"/>
	<path fill="#444444" d="M388.526,238.445v6.672c0,1.104-0.36,1.949-1.08,2.54c-0.72,0.59-1.661,0.885-2.823,0.885
		c-1.14,0-2.063-0.296-2.769-0.889c-0.706-0.592-1.06-1.438-1.06-2.536v-6.672h1.661v6.667c0,0.696,0.196,1.221,0.588,1.571
		s0.918,0.525,1.579,0.525c0.684,0,1.229-0.175,1.634-0.525s0.608-0.875,0.608-1.571v-6.667H388.526z"/>
	<path fill="#444444" d="M397.31,239.778h-3.008v8.62h-1.661v-8.62h-3.008v-1.333h7.677V239.778z"/>
	<path fill="#444444" d="M403.886,245.834c0-0.412-0.154-0.75-0.461-1.014c-0.309-0.263-0.852-0.499-1.631-0.708
		c-1.112-0.291-1.968-0.678-2.566-1.158c-0.6-0.481-0.899-1.111-0.899-1.891c0-0.802,0.331-1.463,0.995-1.982
		c0.662-0.52,1.519-0.779,2.566-0.779c1.094,0,1.973,0.295,2.635,0.886c0.664,0.59,0.983,1.298,0.961,2.122l-0.014,0.041h-1.593
		c0-0.51-0.173-0.924-0.52-1.24c-0.347-0.317-0.841-0.476-1.483-0.476c-0.606,0-1.072,0.132-1.398,0.396
		c-0.325,0.265-0.488,0.605-0.488,1.023c0,0.377,0.177,0.691,0.529,0.941c0.354,0.25,0.938,0.486,1.754,0.709
		c1.071,0.287,1.885,0.684,2.44,1.189s0.834,1.151,0.834,1.935c0,0.83-0.331,1.489-0.995,1.979
		c-0.662,0.489-1.534,0.734-2.614,0.734c-1.039,0-1.95-0.276-2.734-0.83s-1.164-1.31-1.142-2.267l0.014-0.041h1.6
		c0,0.606,0.21,1.059,0.629,1.357c0.419,0.298,0.964,0.447,1.634,0.447c0.615,0,1.094-0.123,1.436-0.371
		C403.716,246.591,403.886,246.257,403.886,245.834z"/>
</g>
<g>
	<path fill="#444444" d="M297.985,275.941v2.695h-1.187v-7.109h2.778c0.784,0,1.399,0.202,1.843,0.607
		c0.445,0.405,0.667,0.938,0.667,1.6c0,0.667-0.222,1.202-0.667,1.604c-0.443,0.402-1.059,0.604-1.843,0.604H297.985z
		 M297.985,274.989h1.592c0.439,0,0.771-0.117,0.991-0.352s0.332-0.532,0.332-0.894s-0.111-0.663-0.332-0.903
		c-0.221-0.241-0.552-0.361-0.991-0.361h-1.592V274.989z"/>
	<path fill="#444444" d="M306.266,276.977h-2.783l-0.566,1.66h-1.201l2.612-7.109h1.123l2.583,7.109h-1.206L306.266,276.977z
		 M303.825,275.985h2.104l-1.03-3.037h-0.029L303.825,275.985z"/>
	<path fill="#444444" d="M310.046,275.688v2.949h-1.187v-7.109h2.627c0.794,0,1.408,0.179,1.841,0.537
		c0.433,0.357,0.649,0.869,0.649,1.533c0,0.367-0.095,0.685-0.286,0.949c-0.189,0.266-0.468,0.478-0.832,0.638
		c0.4,0.127,0.688,0.334,0.864,0.622s0.264,0.643,0.264,1.063v0.591c0,0.208,0.026,0.411,0.078,0.61
		c0.052,0.198,0.14,0.35,0.264,0.454v0.112h-1.221c-0.13-0.107-0.214-0.277-0.251-0.508c-0.038-0.231-0.057-0.458-0.057-0.679
		v-0.571c0-0.365-0.104-0.654-0.313-0.869s-0.495-0.322-0.859-0.322H310.046z M310.046,274.735h1.377
		c0.476,0,0.822-0.092,1.04-0.273c0.218-0.183,0.327-0.461,0.327-0.835c0-0.358-0.107-0.639-0.322-0.843
		c-0.215-0.203-0.542-0.305-0.981-0.305h-1.44V274.735z"/>
	<path fill="#444444" d="M319.333,276.977h-2.783l-0.566,1.66h-1.201l2.612-7.109h1.123l2.583,7.109h-1.206L319.333,276.977z
		 M316.891,275.985h2.104l-1.03-3.037h-0.029L316.891,275.985z"/>
	<path fill="#444444" d="M323.112,277.685h3.267v0.952h-4.453v-7.109h1.187V277.685z"/>
	<path fill="#444444" d="M331.633,275.438h-3.11v2.246h3.608v0.952h-4.795v-7.109h4.761v0.952h-3.574v2.007h3.11V275.438z"/>
	<path fill="#444444" d="M334.318,277.685h3.267v0.952h-4.453v-7.109h1.187V277.685z"/>
	<path fill="#444444" d="M339.728,277.685h3.267v0.952h-4.453v-7.109h1.187V277.685z"/>
</g>
<g>
	<path fill="#444444" d="M300.651,333.472c0-0.295-0.11-0.537-0.329-0.725c-0.221-0.188-0.608-0.356-1.165-0.506
		c-0.794-0.208-1.405-0.484-1.833-0.827c-0.429-0.344-0.643-0.794-0.643-1.351c0-0.572,0.236-1.045,0.711-1.416
		c0.473-0.371,1.084-0.557,1.833-0.557c0.781,0,1.409,0.211,1.882,0.633c0.475,0.421,0.703,0.927,0.687,1.516l-0.01,0.029h-1.138
		c0-0.364-0.123-0.66-0.371-0.886c-0.248-0.227-0.601-0.34-1.06-0.34c-0.433,0-0.766,0.095-0.999,0.283
		c-0.232,0.188-0.349,0.432-0.349,0.73c0,0.27,0.126,0.494,0.378,0.672c0.253,0.179,0.67,0.348,1.253,0.507
		c0.765,0.205,1.347,0.488,1.743,0.85s0.596,0.822,0.596,1.382c0,0.593-0.236,1.063-0.711,1.414
		c-0.473,0.35-1.096,0.524-1.867,0.524c-0.742,0-1.393-0.197-1.953-0.593s-0.832-0.936-0.815-1.619l0.01-0.029h1.143
		c0,0.434,0.149,0.756,0.449,0.97c0.3,0.213,0.688,0.319,1.167,0.319c0.439,0,0.781-0.088,1.025-0.265
		S300.651,333.772,300.651,333.472z"/>
	<path fill="#444444" d="M307.946,329.146h-2.148v6.157h-1.187v-6.157h-2.148v-0.952h5.483V329.146z"/>
	<path fill="#444444" d="M312.214,333.643h-2.783l-0.566,1.66h-1.201l2.612-7.109h1.123l2.583,7.109h-1.206L312.214,333.643z
		 M309.772,332.651h2.104l-1.03-3.037h-0.029L309.772,332.651z"/>
	<path fill="#444444" d="M319.992,332.944l0.01,0.029c0.013,0.72-0.221,1.305-0.7,1.756c-0.48,0.45-1.131,0.676-1.951,0.676
		c-0.83,0-1.505-0.279-2.023-0.837c-0.52-0.559-0.779-1.272-0.779-2.142v-1.353c0-0.865,0.256-1.579,0.77-2.141
		c0.512-0.562,1.179-0.843,1.999-0.843c0.84,0,1.501,0.221,1.985,0.662c0.482,0.44,0.718,1.034,0.705,1.779l-0.01,0.029h-1.147
		c0-0.479-0.13-0.851-0.388-1.118c-0.26-0.267-0.641-0.4-1.146-0.4c-0.485,0-0.87,0.192-1.155,0.576
		c-0.284,0.384-0.427,0.865-0.427,1.443v1.361c0,0.586,0.146,1.07,0.437,1.454c0.292,0.384,0.685,0.575,1.18,0.575
		c0.491,0,0.864-0.131,1.118-0.394c0.254-0.264,0.381-0.635,0.381-1.115H319.992z"/>
	<path fill="#444444" d="M323.171,332.227h-0.82v3.076h-1.187v-7.109h1.187v3.013h0.679l2.231-3.013h1.406l-2.588,3.394l2.788,3.716
		h-1.45L323.171,332.227z"/>
	<path fill="#444444" d="M331.906,332.104h-3.11v2.246h3.608v0.952h-4.795v-7.109h4.761v0.952h-3.574v2.007h3.11V332.104z"/>
	<path fill="#444444" d="M333.405,335.303v-7.109h2.305c0.901,0,1.635,0.282,2.2,0.845c0.564,0.563,0.847,1.288,0.847,2.173v1.079
		c0,0.889-0.282,1.613-0.847,2.173c-0.565,0.561-1.299,0.84-2.2,0.84H333.405z M334.592,329.146v5.205h1.084
		c0.589,0,1.053-0.191,1.389-0.575c0.338-0.384,0.506-0.88,0.506-1.488v-1.088c0-0.602-0.168-1.094-0.506-1.478
		c-0.336-0.384-0.8-0.576-1.389-0.576H334.592z"/>
</g>
<g>
	<path fill="#444444" d="M296.799,393.303v-7.109h2.305c0.902,0,1.635,0.281,2.199,0.845c0.565,0.563,0.848,1.287,0.848,2.173v1.079
		c0,0.889-0.282,1.612-0.848,2.173c-0.564,0.56-1.297,0.84-2.199,0.84H296.799z M297.985,387.146v5.205h1.084
		c0.589,0,1.052-0.192,1.39-0.576c0.336-0.384,0.505-0.879,0.505-1.487v-1.088c0-0.602-0.169-1.095-0.505-1.479
		c-0.338-0.384-0.801-0.575-1.39-0.575H297.985z"/>
	<path fill="#444444" d="M308.913,390.388c0,0.869-0.272,1.589-0.818,2.16c-0.545,0.571-1.252,0.857-2.121,0.857
		c-0.854,0-1.546-0.286-2.077-0.857c-0.533-0.571-0.799-1.291-0.799-2.16v-1.279c0-0.866,0.266-1.586,0.799-2.158
		c0.531-0.573,1.223-0.859,2.072-0.859c0.869,0,1.577,0.286,2.124,0.859c0.547,0.572,0.82,1.292,0.82,2.158V390.388z
		 M307.731,389.099c0-0.593-0.158-1.079-0.477-1.46c-0.316-0.381-0.746-0.571-1.286-0.571c-0.521,0-0.933,0.19-1.235,0.571
		s-0.454,0.867-0.454,1.46v1.289c0,0.599,0.151,1.09,0.454,1.472c0.303,0.383,0.717,0.574,1.24,0.574
		c0.544,0,0.973-0.19,1.287-0.571c0.313-0.381,0.471-0.873,0.471-1.475V389.099z"/>
	<path fill="#444444" d="M315.597,386.193v4.766c0,0.787-0.257,1.393-0.771,1.813c-0.515,0.422-1.187,0.633-2.017,0.633
		c-0.813,0-1.473-0.212-1.978-0.635c-0.505-0.424-0.757-1.027-0.757-1.812v-4.766h1.187v4.762c0,0.498,0.14,0.872,0.42,1.122
		c0.28,0.251,0.656,0.376,1.128,0.376c0.488,0,0.877-0.125,1.167-0.376c0.29-0.25,0.435-0.624,0.435-1.122v-4.762H315.597z"/>
	<path fill="#444444" d="M317.013,393.303v-7.109h2.363c0.788,0,1.403,0.162,1.846,0.485c0.442,0.324,0.664,0.809,0.664,1.453
		c0,0.322-0.093,0.61-0.278,0.864s-0.442,0.442-0.771,0.566c0.423,0.094,0.749,0.298,0.977,0.61s0.342,0.675,0.342,1.089
		c0,0.667-0.218,1.174-0.654,1.521s-1.038,0.521-1.807,0.521H317.013z M318.2,389.187h1.309c0.368,0,0.658-0.087,0.871-0.262
		c0.214-0.174,0.32-0.421,0.32-0.739c0-0.352-0.112-0.613-0.337-0.784s-0.554-0.256-0.986-0.256H318.2V389.187z M318.2,390.07v2.28
		h1.494c0.41,0,0.726-0.094,0.947-0.28s0.332-0.457,0.332-0.812c0-0.377-0.093-0.669-0.278-0.877s-0.476-0.312-0.869-0.312H318.2z"
		/>
	<path fill="#444444" d="M324.606,392.351h3.267v0.952h-4.453v-7.109h1.187V392.351z"/>
	<path fill="#444444" d="M333.127,390.104h-3.11v2.246h3.608v0.952h-4.795v-7.109h4.761v0.952h-3.574v2.007h3.11V390.104z"/>
	<path fill="#444444" d="M334.626,393.303v-7.109h2.305c0.901,0,1.635,0.281,2.2,0.845c0.564,0.563,0.847,1.287,0.847,2.173v1.079
		c0,0.889-0.282,1.612-0.847,2.173c-0.565,0.56-1.299,0.84-2.2,0.84H334.626z M335.812,387.146v5.205h1.084
		c0.589,0,1.053-0.192,1.389-0.576c0.338-0.384,0.506-0.879,0.506-1.487v-1.088c0-0.602-0.168-1.095-0.506-1.479
		c-0.336-0.384-0.8-0.575-1.389-0.575H335.812z"/>
</g>
<g>
	<path fill="#444444" d="M296.692,22.921c0-0.413-0.153-0.75-0.462-1.014c-0.307-0.263-0.851-0.5-1.63-0.708
		c-1.112-0.292-1.968-0.678-2.567-1.159c-0.599-0.481-0.898-1.111-0.898-1.89c0-0.802,0.332-1.463,0.994-1.982
		c0.664-0.52,1.52-0.779,2.567-0.779c1.094,0,1.972,0.295,2.636,0.885c0.662,0.59,0.982,1.298,0.96,2.123l-0.014,0.041h-1.593
		c0-0.51-0.174-0.924-0.52-1.241s-0.841-0.475-1.483-0.475c-0.606,0-1.072,0.132-1.397,0.396c-0.326,0.264-0.489,0.605-0.489,1.023
		c0,0.377,0.177,0.691,0.53,0.941c0.353,0.25,0.938,0.487,1.753,0.709c1.071,0.287,1.884,0.684,2.44,1.189s0.834,1.151,0.834,1.935
		c0,0.83-0.332,1.489-0.994,1.979c-0.664,0.49-1.535,0.735-2.615,0.735c-1.039,0-1.951-0.277-2.734-0.831s-1.164-1.309-1.142-2.266
		l0.014-0.041h1.6c0,0.606,0.21,1.059,0.629,1.357s0.964,0.448,1.634,0.448c0.615,0,1.094-0.124,1.436-0.371
		C296.521,23.678,296.692,23.343,296.692,22.921z"/>
	<path fill="#444444" d="M301.86,25.485h-1.661v-9.953h1.661V25.485z"/>
	<path fill="#444444" d="M304.13,25.485v-9.953h3.227c1.263,0,2.289,0.394,3.079,1.183c0.791,0.789,1.187,1.802,1.187,3.042v1.511
		c0,1.244-0.396,2.258-1.187,3.042c-0.79,0.784-1.816,1.176-3.079,1.176H304.13z M305.791,16.865v7.287h1.518
		c0.825,0,1.473-0.269,1.945-0.806c0.471-0.538,0.707-1.232,0.707-2.083v-1.522c0-0.843-0.236-1.532-0.707-2.07
		c-0.473-0.537-1.12-0.806-1.945-0.806H305.791z"/>
	<path fill="#444444" d="M319.346,21.008h-4.354v3.145h5.052v1.333h-6.713v-9.953h6.665v1.333h-5.004v2.81h4.354V21.008z"/>
	<path fill="#444444" d="M321.445,25.485v-9.953h3.309c1.103,0,1.964,0.227,2.584,0.68s0.93,1.131,0.93,2.034
		c0,0.451-0.13,0.854-0.39,1.21s-0.62,0.62-1.08,0.793c0.593,0.132,1.048,0.417,1.367,0.854s0.479,0.946,0.479,1.524
		c0,0.934-0.306,1.644-0.916,2.129s-1.454,0.728-2.529,0.728H321.445z M323.106,19.723h1.832c0.515,0,0.922-0.122,1.221-0.366
		c0.298-0.244,0.447-0.589,0.447-1.036c0-0.492-0.157-0.858-0.472-1.097s-0.774-0.359-1.381-0.359h-1.647V19.723z M323.106,20.96
		v3.192h2.092c0.574,0,1.017-0.131,1.326-0.392c0.31-0.262,0.465-0.64,0.465-1.136c0-0.528-0.13-0.937-0.39-1.228
		s-0.665-0.437-1.217-0.437H323.106z"/>
	<path fill="#444444" d="M335.807,23.161h-3.896l-0.793,2.324h-1.682l3.657-9.953h1.572l3.616,9.953h-1.688L335.807,23.161z
		 M332.389,21.773h2.946l-1.442-4.252h-0.041L332.389,21.773z"/>
	<path fill="#444444" d="M341.098,21.356v4.129h-1.661v-9.953h3.678c1.112,0,1.971,0.25,2.577,0.752s0.909,1.217,0.909,2.146
		c0,0.515-0.134,0.958-0.399,1.33c-0.268,0.372-0.655,0.669-1.166,0.892c0.561,0.178,0.964,0.468,1.21,0.872
		s0.369,0.899,0.369,1.487v0.827c0,0.292,0.036,0.577,0.109,0.854s0.196,0.49,0.369,0.636v0.157h-1.709
		c-0.183-0.15-0.3-0.387-0.353-0.711c-0.052-0.324-0.078-0.64-0.078-0.95v-0.8c0-0.51-0.146-0.916-0.438-1.217
		s-0.692-0.451-1.203-0.451H341.098z M341.098,20.023h1.928c0.665,0,1.15-0.127,1.456-0.383s0.458-0.645,0.458-1.169
		c0-0.501-0.15-0.895-0.451-1.179s-0.759-0.427-1.374-0.427h-2.017V20.023z"/>
	<path fill="#444444" d="M353.854,24.152h4.573v1.333h-6.234v-9.953h1.661V24.152z"/>
	<path fill="#444444" d="M365.298,23.161h-3.896l-0.793,2.324h-1.682l3.657-9.953h1.572l3.616,9.953h-1.688L365.298,23.161z
		 M361.88,21.773h2.946l-1.442-4.252h-0.041L361.88,21.773z"/>
	<path fill="#444444" d="M372.175,20.372l2.406-4.84h1.853l-3.452,6.46v3.493h-1.654v-3.582l-3.397-6.371h1.853L372.175,20.372z"/>
	<path fill="#444444" d="M385.156,21.404c0,1.217-0.382,2.225-1.145,3.025c-0.764,0.8-1.754,1.2-2.971,1.2
		c-1.194,0-2.164-0.4-2.908-1.2c-0.746-0.8-1.118-1.808-1.118-3.025v-1.791c0-1.212,0.372-2.219,1.118-3.021
		c0.744-0.802,1.712-1.203,2.901-1.203c1.217,0,2.208,0.401,2.974,1.203s1.148,1.809,1.148,3.021V21.404z M383.502,19.6
		c0-0.83-0.223-1.511-0.666-2.044c-0.445-0.533-1.045-0.8-1.802-0.8c-0.729,0-1.306,0.267-1.729,0.8s-0.636,1.214-0.636,2.044v1.805
		c0,0.838,0.212,1.525,0.636,2.061s1.003,0.803,1.736,0.803c0.761,0,1.361-0.267,1.801-0.8c0.44-0.533,0.66-1.221,0.66-2.064V19.6z"
		/>
	<path fill="#444444" d="M394.514,15.532v6.672c0,1.103-0.36,1.949-1.08,2.54s-1.661,0.885-2.823,0.885
		c-1.14,0-2.063-0.296-2.769-0.889s-1.06-1.438-1.06-2.536v-6.672h1.661v6.667c0,0.697,0.196,1.221,0.588,1.571
		s0.918,0.526,1.579,0.526c0.684,0,1.229-0.175,1.634-0.526s0.608-0.875,0.608-1.571v-6.667H394.514z"/>
	<path fill="#444444" d="M403.299,16.865h-3.008v8.62h-1.661v-8.62h-3.008v-1.333h7.677V16.865z"/>
	<path fill="#444444" d="M409.875,22.921c0-0.413-0.154-0.75-0.461-1.014c-0.309-0.263-0.852-0.5-1.631-0.708
		c-1.112-0.292-1.968-0.678-2.566-1.159c-0.6-0.481-0.899-1.111-0.899-1.89c0-0.802,0.331-1.463,0.995-1.982
		c0.662-0.52,1.519-0.779,2.566-0.779c1.094,0,1.973,0.295,2.635,0.885c0.664,0.59,0.983,1.298,0.961,2.123l-0.014,0.041h-1.593
		c0-0.51-0.173-0.924-0.52-1.241s-0.841-0.475-1.483-0.475c-0.606,0-1.072,0.132-1.398,0.396c-0.325,0.264-0.488,0.605-0.488,1.023
		c0,0.377,0.177,0.691,0.529,0.941c0.354,0.25,0.938,0.487,1.754,0.709c1.071,0.287,1.885,0.684,2.44,1.189s0.834,1.151,0.834,1.935
		c0,0.83-0.331,1.489-0.995,1.979c-0.662,0.49-1.534,0.735-2.614,0.735c-1.039,0-1.95-0.277-2.734-0.831s-1.164-1.309-1.142-2.266
		l0.014-0.041h1.6c0,0.606,0.21,1.059,0.629,1.357s0.964,0.448,1.634,0.448c0.615,0,1.094-0.124,1.436-0.371
		C409.704,23.678,409.875,23.343,409.875,22.921z"/>
</g>
</svg>
