<?xml version="1.0" encoding="utf-8"?>
<!-- Generator: Adobe Illustrator 16.0.3, SVG Export Plug-In . SVG Version: 6.00 Build 0)  -->
<!DOCTYPE svg PUBLIC "-//W3C//DTD SVG 1.1//EN" "http://www.w3.org/Graphics/SVG/1.1/DTD/svg11.dtd">
<svg version="1.1" id="logo" xmlns="http://www.w3.org/2000/svg" xmlns:xlink="http://www.w3.org/1999/xlink" x="0px" y="0px"
	 width="175px" height="70px" viewBox="0 0 175 70" enable-background="new 0 0 175 70" xml:space="preserve">
<g>
	<g>
		<g>
			<defs>
				<rect id="SVGID_1_" x="-12" y="10.23" width="180" height="30.786"/>
			</defs>
			<clipPath id="SVGID_2_">
				<use xlink:href="#SVGID_1_"  overflow="visible"/>
			</clipPath>
			<g clip-path="url(#SVGID_2_)">
				<path fill="#555555" d="M1.672,25.73h7.963v9.738l8.341-9.738h10.59l-9.404,9.727L28.988,51.5h-9.806l-5.433-10.598l-4.114,4.31
					V51.5H1.672V25.73z"/>
				<path fill="#555555" d="M47.468,47.246h-9.041L37.171,51.5h-8.13l9.686-25.77h8.686l9.684,25.77h-8.339L47.468,47.246z
					 M45.816,41.674l-2.844-9.264l-2.814,9.264H45.816z"/>
				<path fill="#555555" d="M55.338,25.73h24.205v6.363h-8.121V51.5h-7.963V32.094h-8.121V25.73z"/>
				<path fill="#555555" d="M96.546,47.246h-9.04L86.25,51.5h-8.131l9.686-25.77h8.688l9.684,25.77h-8.339L96.546,47.246z
					 M94.895,41.674L92.05,32.41l-2.813,9.264H94.895z"/>
				<path fill="#555555" d="M108.758,25.73h7.436l9.703,14.256V25.73h7.506V51.5h-7.506l-9.648-14.148V51.5h-7.488L108.758,25.73
					L108.758,25.73z"/>
				<path fill="#555555" d="M154.186,47.246h-9.041l-1.256,4.254h-8.131l9.686-25.77h8.688l9.686,25.77h-8.34L154.186,47.246z
					 M152.533,41.674l-2.846-9.264l-2.813,9.264H152.533z"/>
			</g>
		</g>
	</g>
</g>
<g>
	<g>
		<g>
			<defs>
				<rect id="SVGID_3_" x="-5" y="42.639" width="180" height="17.361"/>
			</defs>
			<clipPath id="SVGID_4_">
				<use xlink:href="#SVGID_3_"  overflow="visible"/>
			</clipPath>
			<g clip-path="url(#SVGID_4_)">
				<polygon fill="#B2B2B2" points="35.566,26.73 24.976,26.73 16.635,36.469 16.635,26.73 8.672,26.73 8.672,52.5 16.635,52.5 
					16.635,46.212 20.749,41.902 26.182,52.5 35.988,52.5 26.163,36.457 				"/>
				<path fill="#B2B2B2" d="M45.727,26.73L36.041,52.5h8.13l1.256-4.254h9.041l1.289,4.254h8.339l-9.684-25.77H45.727z
					 M47.157,42.674l2.814-9.264l2.844,9.264H47.157z"/>
				<polygon fill="#B2B2B2" points="86.543,26.73 62.338,26.73 62.338,33.094 70.459,33.094 70.459,52.5 78.422,52.5 78.422,33.094 
					86.543,33.094 				"/>
				<path fill="#B2B2B2" d="M94.805,26.73L85.119,52.5h8.131l1.256-4.254h9.04l1.289,4.254h8.339l-9.684-25.77H94.805z
					 M96.234,42.674l2.813-9.264l2.847,9.264H96.234z"/>
				<polygon fill="#B2B2B2" points="132.896,40.986 123.193,26.73 115.758,26.73 115.758,52.5 123.246,52.5 123.246,38.352 
					132.896,52.5 140.402,52.5 140.402,26.73 132.896,26.73 				"/>
				<path fill="#B2B2B2" d="M161.129,26.73h-8.686l-9.688,25.77h8.133l1.256-4.254h9.039l1.289,4.254h8.34L161.129,26.73z
					 M153.874,42.674l2.813-9.264l2.846,9.264H153.874z"/>
			</g>
		</g>
	</g>
</g>
</svg>
