<?xml version="1.0" encoding="utf-8"?>
<!-- Generator: Adobe Illustrator 16.0.3, SVG Export Plug-In . SVG Version: 6.00 Build 0)  -->
<!DOCTYPE svg PUBLIC "-//W3C//DTD SVG 1.1//EN" "http://www.w3.org/Graphics/SVG/1.1/DTD/svg11.dtd">
<svg version="1.1" id="logo" xmlns="http://www.w3.org/2000/svg" xmlns:xlink="http://www.w3.org/1999/xlink" x="0px" y="0px"
	 width="227.5px" height="70px" viewBox="0 0 227.5 70" enable-background="new 0 0 227.5 70" xml:space="preserve">
<g>
	<g>
		<g>
			<defs>
				<rect id="SVGID_1_" x="21.5" y="7.23" width="180" height="30.786"/>
			</defs>
			<clipPath id="SVGID_2_">
				<use xlink:href="#SVGID_1_"  overflow="visible"/>
			</clipPath>
			<g clip-path="url(#SVGID_2_)">
				<path fill="#FFFFFF" d="M35.172,22.73h7.963v9.738l8.341-9.738h10.59l-9.404,9.727L62.488,48.5h-9.806l-5.433-10.598
					l-4.114,4.31V48.5h-7.963V22.73z"/>
				<path fill="#FFFFFF" d="M80.968,44.246h-9.041L70.671,48.5h-8.13l9.686-25.77h8.686l9.684,25.77h-8.339L80.968,44.246z
					 M79.316,38.674l-2.844-9.264l-2.814,9.264H79.316z"/>
				<path fill="#FFFFFF" d="M88.838,22.73h24.205v6.363h-8.121V48.5h-7.963V29.094h-8.121V22.73z"/>
				<path fill="#FFFFFF" d="M130.046,44.246h-9.04L119.75,48.5h-8.131l9.686-25.77h8.688l9.684,25.77h-8.339L130.046,44.246z
					 M128.395,38.674l-2.845-9.264l-2.813,9.264H128.395z"/>
				<path fill="#FFFFFF" d="M142.258,22.73h7.436l9.703,14.256V22.73h7.506V48.5h-7.506l-9.648-14.149V48.5h-7.488L142.258,22.73
					L142.258,22.73z"/>
				<path fill="#FFFFFF" d="M187.686,44.246h-9.041l-1.256,4.254h-8.131l9.686-25.77h8.688l9.686,25.77h-8.34L187.686,44.246z
					 M186.033,38.674l-2.846-9.264l-2.813,9.264H186.033z"/>
			</g>
		</g>
	</g>
</g>
<g>
	<g>
		<g>
			<defs>
				<rect id="SVGID_3_" x="28.5" y="39.639" width="180" height="17.361"/>
			</defs>
			<clipPath id="SVGID_4_">
				<use xlink:href="#SVGID_3_"  overflow="visible"/>
			</clipPath>
			<g clip-path="url(#SVGID_4_)">
				<polygon fill="#B2B2B2" points="69.066,23.73 58.476,23.73 50.135,33.469 50.135,23.73 42.172,23.73 42.172,49.5 50.135,49.5 
					50.135,43.212 54.249,38.902 59.682,49.5 69.488,49.5 59.663,33.457 				"/>
				<path fill="#B2B2B2" d="M79.227,23.73L69.541,49.5h8.13l1.256-4.254h9.041l1.289,4.254h8.339l-9.684-25.77H79.227z
					 M80.657,39.674l2.814-9.264l2.844,9.264H80.657z"/>
				<polygon fill="#B2B2B2" points="120.043,23.73 95.838,23.73 95.838,30.094 103.959,30.094 103.959,49.5 111.922,49.5 
					111.922,30.094 120.043,30.094 				"/>
				<path fill="#B2B2B2" d="M128.305,23.73l-9.686,25.77h8.131l1.256-4.254h9.04l1.289,4.254h8.339l-9.684-25.77H128.305z
					 M129.734,39.674l2.813-9.264l2.847,9.264H129.734z"/>
				<polygon fill="#B2B2B2" points="166.396,37.986 156.693,23.73 149.258,23.73 149.258,49.5 156.746,49.5 156.746,35.351 
					166.396,49.5 173.902,49.5 173.902,23.73 166.396,23.73 				"/>
				<path fill="#B2B2B2" d="M194.629,23.73h-8.686l-9.688,25.77h8.133l1.256-4.254h9.039l1.289,4.254h8.34L194.629,23.73z
					 M187.374,39.674l2.813-9.264l2.846,9.264H187.374z"/>
			</g>
		</g>
	</g>
</g>
</svg>
